<?xml version="1.0" standalone="no"?>
<!DOCTYPE svg PUBLIC "-//W3C//DTD SVG 20010904//EN"
 "http://www.w3.org/TR/2001/REC-SVG-20010904/DTD/svg10.dtd">
<svg version="1.0" xmlns="http://www.w3.org/2000/svg"
 width="1996.000000pt" height="1996.000000pt" viewBox="0 0 1996.000000 1996.000000"
 preserveAspectRatio="xMidYMid meet">
<metadata>
Created by potrace 1.14, written by Peter Selinger 2001-2017
</metadata>
<g transform="translate(0.000000,1996.000000) scale(0.100000,-0.100000)"
fill="#000000" stroke="none">
<path d="M17379 13778 c0 -13 -2 -32 -4 -43 -5 -26 -14 -88 -20 -150 -4 -27
-8 -61 -10 -75 -2 -14 -7 -52 -10 -85 -4 -33 -9 -72 -11 -86 -2 -15 -6 -47 -9
-70 -3 -24 -7 -60 -10 -79 -3 -19 -7 -53 -10 -75 -2 -22 -6 -53 -9 -70 -2 -16
-8 -59 -11 -95 -4 -36 -9 -73 -10 -82 -2 -9 -7 -43 -10 -75 -4 -32 -8 -69 -10
-83 -2 -14 -6 -47 -9 -75 -8 -61 -14 -105 -22 -170 -8 -61 -13 -97 -19 -150
-2 -22 -7 -60 -10 -85 -3 -25 -8 -61 -10 -80 -2 -19 -7 -55 -10 -80 -4 -25 -8
-58 -10 -75 -2 -16 -7 -50 -10 -75 -4 -25 -8 -61 -10 -80 -2 -19 -7 -54 -10
-77 -9 -76 -15 -122 -20 -164 -2 -23 -7 -59 -10 -80 -8 -62 -15 -111 -20 -154
-9 -74 -16 -130 -21 -165 -2 -19 -7 -53 -9 -75 -2 -22 -7 -62 -11 -90 -3 -27
-8 -63 -10 -80 -2 -16 -6 -52 -10 -80 -12 -89 -14 -109 -19 -150 -4 -39 -6
-57 -20 -155 -3 -25 -8 -61 -10 -80 -10 -94 -16 -138 -20 -167 -3 -18 -8 -54
-10 -80 -3 -27 -7 -61 -10 -78 -7 -45 -14 -95 -19 -150 -3 -27 -8 -61 -11 -75
-3 -14 -7 -52 -10 -85 -2 -33 -6 -71 -9 -84 -3 -13 -8 -47 -11 -75 -2 -28 -7
-62 -10 -76 -2 -14 -7 -50 -9 -80 -3 -30 -7 -64 -10 -75 -2 -11 -7 -47 -10
-80 -4 -33 -9 -73 -11 -90 -22 -165 -22 -169 -29 -236 -4 -31 -8 -64 -10 -75
-4 -19 4 -20 299 -19 167 0 306 2 308 5 5 5 12 46 22 130 7 61 14 112 22 163
3 23 7 57 7 74 1 40 8 41 31 6 19 -32 203 -213 215 -213 5 0 15 -6 22 -12 44
-41 246 -141 308 -153 8 -2 35 -8 60 -15 53 -14 59 -15 130 -25 105 -15 302
-20 395 -10 43 4 125 14 165 19 42 6 162 36 210 52 25 9 50 17 55 18 57 15
291 137 315 165 3 3 25 19 50 36 126 84 321 317 405 485 15 30 31 63 36 73 12
23 51 126 49 129 -1 2 5 21 13 43 16 42 41 146 54 230 13 81 7 490 -7 490 -1
0 -3 9 -5 20 -6 44 -16 85 -25 109 -5 15 -7 26 -5 26 3 0 -1 16 -9 35 -9 20
-15 36 -15 38 1 5 -15 45 -39 102 -76 178 -225 355 -392 465 -41 28 -79 50
-85 51 -5 0 -17 7 -25 14 -8 8 -49 27 -90 43 -41 16 -84 33 -95 37 -11 4 -24
9 -30 11 -5 1 -37 9 -70 18 -33 9 -73 18 -90 20 -16 2 -55 8 -85 12 -149 20
-403 5 -545 -32 -33 -9 -64 -17 -70 -18 -55 -15 -71 -20 -80 -26 -5 -4 -24
-11 -42 -14 -17 -4 -37 -14 -44 -22 -6 -8 -17 -14 -25 -14 -16 0 -112 -52
-189 -103 -60 -40 -177 -135 -183 -149 -2 -5 -8 -8 -13 -8 -6 0 -8 17 -4 40 3
22 7 57 10 79 3 21 8 58 10 82 2 24 7 60 9 79 6 39 13 90 21 165 3 28 9 68 12
90 10 75 15 113 27 225 3 25 8 61 11 80 3 19 7 55 10 80 2 25 6 56 9 70 3 14
7 51 8 82 2 32 5 58 8 58 3 0 6 12 6 28 2 27 8 86 18 152 3 19 8 58 10 85 3
28 8 61 10 75 3 14 7 48 10 75 3 28 7 66 10 85 3 19 8 56 11 83 11 102 17 143
21 167 3 14 7 49 9 78 3 29 7 65 10 80 2 15 7 52 10 82 3 30 8 71 11 90 7 39
11 73 19 140 3 25 8 65 11 90 4 24 7 55 9 67 l2 23 -308 0 -309 0 -1 -22z
m1260 -2602 c249 -34 442 -152 556 -341 48 -78 67 -115 59 -115 -3 0 -2 -6 4
-12 12 -15 43 -118 36 -118 -3 0 -2 -6 3 -12 24 -39 37 -304 19 -388 -2 -14
-9 -40 -15 -57 -5 -18 -8 -33 -6 -33 6 0 -29 -97 -58 -162 -14 -32 -43 -84
-63 -115 -41 -62 -194 -223 -213 -223 -6 0 -11 -4 -11 -10 0 -5 -6 -10 -14
-10 -7 0 -19 -6 -25 -14 -12 -14 -150 -85 -179 -91 -10 -2 -33 -9 -52 -15 -19
-6 -45 -13 -57 -16 -13 -2 -35 -7 -50 -10 -65 -13 -310 -12 -392 2 -253 44
-451 196 -568 438 -85 173 -88 193 -63 350 6 36 10 69 9 73 -1 4 0 10 1 13 2
5 5 26 14 111 4 31 9 66 11 79 3 14 7 42 11 64 9 62 72 178 149 274 44 55 156
155 219 195 193 125 434 175 675 143z"/>
<path d="M739 13479 c-9 -5 -13 -23 -24 -129 -4 -30 -8 -66 -10 -80 -3 -14 -7
-47 -10 -75 -3 -27 -8 -61 -10 -75 -2 -14 -7 -50 -10 -80 -4 -30 -8 -66 -10
-80 -2 -14 -6 -50 -9 -80 -4 -30 -9 -66 -11 -80 -2 -14 -7 -50 -11 -80 -10
-89 -11 -102 -19 -160 -4 -30 -9 -68 -10 -85 -2 -16 -5 -43 -8 -60 -3 -16 -8
-57 -12 -90 -3 -33 -8 -73 -11 -89 -3 -16 -7 -48 -9 -70 -2 -23 -7 -59 -9 -81
-8 -57 -17 -125 -21 -160 -7 -50 -16 -118 -21 -160 -16 -141 -33 -256 -40
-266 -5 -8 -3 -9 6 -4 8 5 11 4 7 -2 -3 -5 -8 -23 -11 -39 -6 -35 -17 -120
-21 -154 -1 -14 -6 -50 -10 -80 -4 -30 -9 -69 -11 -86 -1 -18 -8 -68 -14 -111
-6 -44 -13 -102 -16 -129 -3 -27 -7 -60 -9 -74 -2 -14 -6 -45 -9 -70 -3 -25
-8 -67 -12 -95 -4 -27 -8 -61 -9 -75 -1 -14 -6 -50 -10 -80 -4 -30 -9 -66 -10
-80 -3 -30 -14 -113 -21 -160 -2 -19 -7 -55 -9 -80 -5 -50 -13 -112 -20 -150
-4 -23 -9 -62 -21 -170 -3 -25 -9 -76 -14 -115 -5 -38 -12 -90 -15 -115 -3
-25 -8 -63 -11 -85 -4 -22 -8 -53 -10 -70 -2 -16 -5 -48 -8 -70 -2 -22 -7 -62
-10 -90 -3 -27 -8 -67 -11 -87 -15 -106 -25 -186 -29 -228 l-3 -35 328 0 c286
0 329 2 330 15 2 18 5 42 14 100 4 25 7 52 7 60 0 8 9 78 19 154 10 77 17 142
17 145 -1 3 1 22 5 41 6 32 14 99 22 175 7 68 15 131 19 155 3 14 7 52 11 85
3 33 8 74 11 91 6 36 12 92 19 154 3 25 7 61 10 81 3 20 8 59 11 85 2 27 6 60
9 74 7 45 18 134 20 170 2 19 4 35 5 35 1 0 3 11 4 25 2 14 6 50 10 80 4 30 9
75 12 100 2 25 6 54 9 65 4 20 12 20 907 19 497 0 910 2 919 4 9 2 16 9 16 15
0 7 4 35 7 62 4 28 9 68 11 90 2 22 6 51 9 64 3 13 8 49 11 80 3 31 8 65 10
76 7 35 18 139 19 174 l1 35 -918 0 c-827 0 -917 1 -912 15 4 15 11 63 20 156
3 22 7 58 10 80 4 22 8 54 10 70 7 64 16 132 20 165 3 19 8 55 10 80 2 25 6
59 9 75 5 37 17 131 21 165 2 14 6 45 9 70 5 43 9 76 22 173 3 23 7 58 9 77 2
19 6 49 9 65 8 52 20 160 18 167 -1 4 2 18 7 30 l9 23 1045 0 1045 0 6 40 c7
45 13 92 21 162 19 157 23 188 24 188 1 0 4 23 6 50 2 42 11 107 18 149 2 10
-2728 15 -2744 5z"/>
<path d="M12329 12765 c-3 -2 -20 -7 -39 -10 -66 -12 -107 -36 -179 -105 -122
-118 -137 -315 -32 -434 98 -111 312 -148 453 -78 110 55 176 133 204 241 28
110 7 209 -60 283 -24 27 -107 74 -161 90 -33 10 -179 20 -186 13z"/>
<path d="M5180 11663 c0 -4 -26 -8 -58 -9 -94 -1 -245 -21 -320 -43 -18 -5
-33 -10 -35 -10 -3 0 -16 -4 -102 -31 -85 -27 -226 -98 -320 -161 -199 -132
-368 -331 -475 -556 -47 -97 -111 -278 -103 -287 4 -3 1 -6 -6 -6 -7 0 -10 -4
-7 -8 3 -5 1 -24 -4 -43 -9 -35 -15 -71 -29 -169 -9 -57 -7 -295 3 -365 3 -22
10 -60 16 -85 6 -25 11 -47 10 -50 0 -3 11 -38 24 -78 29 -83 104 -229 147
-283 16 -20 29 -40 29 -43 0 -4 36 -44 81 -90 131 -137 306 -253 484 -323 73
-29 122 -46 135 -48 3 0 10 -3 15 -6 11 -7 139 -36 195 -45 175 -27 423 -24
600 6 86 14 222 50 238 63 6 5 12 7 12 4 0 -10 235 96 250 113 11 12 90 60 99
60 5 0 11 3 13 8 2 4 27 27 56 51 121 100 233 231 309 363 26 46 48 85 49 88
0 3 13 32 28 65 44 95 97 266 112 359 3 21 8 48 10 60 16 81 21 268 10 376
-21 199 -98 397 -214 552 -78 104 -142 170 -249 259 -38 31 -142 99 -152 99
-5 0 -11 3 -13 8 -8 19 -318 152 -318 136 0 -3 -8 0 -18 5 -15 8 -47 16 -197
46 -16 3 -88 8 -158 10 -71 3 -133 7 -138 10 -5 4 -9 3 -9 -2z m113 -508 c114
-7 278 -57 349 -106 14 -11 29 -19 33 -19 12 0 87 -61 141 -114 191 -190 251
-461 180 -811 -23 -108 -85 -256 -149 -350 -98 -144 -279 -279 -417 -310 -8
-2 -37 -9 -65 -15 -70 -16 -107 -20 -205 -20 -82 0 -105 2 -180 15 -73 12
-251 79 -258 97 -2 4 -10 8 -17 8 -36 0 -190 144 -248 232 -108 164 -144 384
-102 627 2 14 7 41 10 60 3 19 10 42 16 52 5 11 7 19 3 19 -3 0 -1 7 6 15 7 8
9 15 6 15 -4 0 -4 6 1 13 4 6 8 17 9 24 3 16 80 180 93 195 6 7 32 40 57 73
57 72 109 121 187 175 54 38 177 95 177 83 0 -3 6 -1 13 5 18 15 116 33 202
37 43 2 79 6 82 9 3 3 10 3 15 0 5 -4 33 -8 61 -9z"/>
<path d="M9140 11653 c-47 -8 -94 -15 -106 -17 -51 -9 -238 -79 -330 -124
-243 -120 -423 -278 -586 -512 -19 -28 -19 -39 -2 185 6 90 9 125 19 275 l7
105 -129 -2 c-70 0 -150 -2 -178 -2 -27 -1 -92 -1 -144 0 -51 0 -94 -1 -96 -3
-2 -2 -6 -30 -10 -63 -3 -33 -11 -90 -16 -127 -6 -37 -8 -72 -4 -78 3 -5 2
-10 -4 -10 -5 0 -8 -7 -7 -16 1 -9 -1 -40 -6 -68 -4 -28 -10 -76 -13 -106 -3
-30 -9 -68 -12 -85 -3 -16 -7 -46 -8 -65 -1 -19 -5 -57 -9 -85 -10 -71 -25
-192 -32 -250 -3 -27 -7 -61 -9 -75 -7 -37 -18 -142 -19 -167 0 -13 -2 -23 -5
-23 -4 0 -6 -15 -7 -33 0 -17 -4 -59 -8 -92 -5 -33 -9 -71 -11 -85 -1 -14 -5
-47 -9 -75 -4 -27 -9 -66 -11 -85 -9 -76 -17 -136 -21 -162 -2 -15 -6 -53 -9
-85 -2 -32 -6 -67 -9 -78 -3 -19 -15 -111 -21 -165 -1 -14 -5 -43 -9 -65 -3
-22 -8 -65 -11 -95 -3 -30 -8 -66 -10 -80 -2 -14 -7 -47 -10 -75 -3 -27 -7
-61 -10 -75 -12 -77 -15 -120 -8 -121 32 -5 595 -3 598 2 4 6 12 56 20 119 3
27 13 103 20 160 3 19 7 55 10 80 3 25 8 56 10 70 7 48 15 105 20 148 6 53 15
119 20 152 2 14 6 50 10 80 4 30 8 66 10 80 2 14 7 50 10 80 6 55 8 68 19 145
3 22 8 58 11 80 3 22 12 65 20 95 9 30 17 62 20 70 10 41 89 208 104 220 3 3
19 24 34 46 44 65 142 171 202 219 20 17 50 40 65 53 15 12 33 22 39 22 6 0
11 4 11 8 0 22 289 150 304 135 3 -4 6 -2 6 3 0 5 8 10 18 11 9 0 44 4 77 8
87 11 198 12 213 1 8 -6 12 -3 13 8 1 9 2 19 3 24 3 12 16 84 22 126 3 21 7
47 9 56 4 22 17 108 21 135 1 11 3 20 4 20 3 0 13 80 14 108 1 15 5 27 10 27
5 0 7 2 4 6 -3 3 -2 21 2 41 9 40 5 60 -13 60 -7 -1 -50 -7 -97 -14z"/>
<path d="M14588 11656 c-1 -2 -34 -6 -73 -10 -95 -9 -234 -39 -330 -71 -117
-39 -321 -144 -340 -175 -3 -6 -11 -8 -16 -5 -5 4 -9 2 -9 -3 0 -5 -18 -21
-39 -35 -90 -60 -298 -294 -335 -377 -6 -14 -13 -27 -17 -30 -12 -9 -75 -143
-102 -215 -33 -88 -73 -228 -80 -280 -3 -22 -10 -71 -16 -110 -5 -38 -9 -102
-9 -142 0 -39 -3 -76 -6 -82 -4 -6 -4 -11 1 -11 4 0 8 -15 9 -33 3 -159 61
-364 141 -501 36 -61 47 -80 53 -86 3 -3 24 -30 46 -60 81 -107 245 -250 351
-305 21 -11 40 -22 43 -26 16 -18 293 -132 317 -130 2 0 24 -6 50 -14 62 -18
151 -34 233 -43 80 -8 339 -7 400 3 25 3 60 8 78 11 17 2 47 6 65 8 82 11 256
71 375 129 64 31 212 122 222 137 3 4 12 11 21 16 55 30 207 196 278 302 52
78 121 206 121 226 0 8 3 16 8 18 8 3 61 158 85 248 48 181 62 450 31 604 -2
12 -7 35 -9 51 -10 54 -64 209 -93 266 -16 31 -51 89 -77 129 -62 93 -275 310
-304 310 -5 0 -11 4 -13 8 -4 11 -94 72 -106 72 -6 0 -12 3 -14 8 -7 16 -202
102 -303 134 -38 12 -45 13 -130 32 -39 8 -84 18 -100 21 -30 7 -400 16 -407
11z m225 -502 c122 -8 299 -72 404 -146 147 -102 268 -281 297 -438 3 -16 9
-45 12 -62 9 -47 9 -202 1 -273 -22 -184 -95 -378 -189 -503 -45 -61 -177
-192 -193 -192 -3 0 -22 -11 -43 -25 -20 -13 -68 -36 -107 -51 -71 -26 -82
-29 -145 -38 -19 -3 -49 -8 -67 -11 -41 -7 -209 -7 -248 0 -137 27 -272 75
-317 113 -10 8 -18 12 -18 8 0 -4 -6 -2 -12 3 -103 84 -149 125 -173 157 -16
22 -32 41 -36 44 -4 3 -23 34 -42 70 -56 102 -89 243 -90 380 0 58 12 200 18
210 2 3 6 26 10 50 4 25 11 51 17 58 6 6 8 12 5 12 -7 0 35 112 64 173 39 79
43 87 51 87 5 0 8 7 8 15 0 8 5 15 10 15 6 0 10 4 10 10 0 17 99 124 161 175
64 52 194 118 258 130 11 2 24 6 29 8 12 8 83 18 161 22 41 3 76 7 79 9 3 3 9
3 14 0 5 -3 37 -8 71 -10z"/>
<path d="M12007 11560 c-13 -6 -13 -5 -22 -80 -3 -30 -8 -68 -11 -84 -3 -16
-7 -48 -9 -70 -2 -23 -6 -61 -10 -86 -3 -25 -8 -58 -10 -75 -2 -16 -6 -55 -10
-85 -4 -30 -8 -66 -10 -80 -4 -35 -16 -120 -21 -151 -2 -14 -6 -52 -9 -85 -3
-32 -8 -68 -12 -79 -3 -10 -7 -37 -8 -60 -1 -22 -6 -60 -9 -85 -8 -56 -14
-102 -21 -160 -5 -46 -12 -97 -21 -161 -2 -20 -7 -55 -9 -79 -4 -38 -8 -69
-20 -150 -2 -14 -6 -50 -10 -80 -4 -30 -8 -66 -10 -80 -2 -14 -7 -49 -10 -79
-4 -30 -8 -61 -10 -70 -2 -9 -6 -47 -9 -83 -4 -37 -9 -77 -12 -90 -4 -22 -6
-37 -19 -153 -4 -45 -7 -66 -20 -155 -2 -14 -7 -50 -10 -80 -6 -57 -20 -158
-30 -220 -5 -31 -26 -121 -40 -172 -3 -10 -7 -26 -9 -37 -3 -10 -9 -27 -14
-37 -5 -11 -28 -59 -52 -109 -24 -49 -48 -94 -52 -100 -4 -5 -28 -37 -52 -71
-58 -78 -162 -180 -254 -249 -41 -29 -79 -56 -85 -58 -6 -2 0 -16 16 -33 15
-16 27 -32 27 -36 0 -3 6 -13 14 -20 7 -8 60 -72 116 -144 57 -71 106 -133
111 -138 9 -10 120 41 186 86 23 15 44 28 48 28 6 0 39 24 99 70 81 63 172
153 251 251 31 38 95 138 95 148 0 5 3 11 8 13 7 3 84 153 83 163 0 2 9 26 20
52 25 59 73 218 88 293 19 96 34 202 46 313 4 32 8 66 10 75 2 10 6 45 10 77
4 33 8 71 10 85 2 14 7 52 11 85 12 103 12 108 23 185 5 41 13 100 17 130 3
30 8 66 9 80 2 14 6 50 9 80 3 30 8 64 10 75 2 11 7 54 11 95 4 41 8 77 10 80
2 3 6 37 10 75 4 39 9 79 11 90 3 11 7 42 9 69 7 62 15 124 20 156 2 14 7 54
10 90 3 36 8 72 10 80 2 8 7 42 10 74 3 33 8 74 10 93 10 72 14 100 20 158 4
33 8 71 11 85 2 14 7 49 10 79 3 30 8 64 10 75 2 12 7 49 9 82 7 73 11 100 21
116 5 7 3 8 -6 3 -9 -6 -11 -4 -5 5 4 7 9 26 11 41 l4 29 -63 1 c-74 1 -163 1
-232 0 -184 -3 -193 -3 -253 1 -24 2 -48 1 -55 -2z"/>
<path d="M1454 7024 c-27 -7 -52 -13 -55 -14 -4 0 -25 -16 -47 -36 -41 -35
-74 -102 -88 -176 -16 -87 -11 -364 9 -454 29 -127 121 -194 267 -194 132 0
219 55 255 160 1 3 5 12 8 20 31 71 29 449 -3 525 -31 74 -42 95 -52 95 -6 0
-9 3 -5 6 6 6 -58 54 -78 59 -5 1 -22 5 -36 9 -47 13 -125 13 -175 0z m137
-129 c9 -3 22 -18 29 -33 7 -15 15 -34 19 -42 10 -20 14 -102 14 -245 -1 -232
-20 -290 -99 -298 -52 -6 -77 8 -101 52 -23 43 -27 73 -27 261 0 226 11 276
68 304 30 15 62 15 97 1z"/>
<path d="M16149 7024 c-99 -30 -142 -73 -164 -167 -32 -141 13 -239 139 -301
41 -20 84 -39 96 -41 12 -2 41 -16 65 -29 42 -25 55 -47 61 -104 9 -78 -83
-134 -158 -96 -35 18 -49 44 -52 97 l-3 42 -84 0 -84 0 -1 -35 c-1 -59 26
-136 62 -176 19 -20 34 -34 34 -31 0 3 17 -3 38 -13 30 -16 56 -19 142 -17
117 3 173 22 228 78 68 69 76 253 15 321 -21 24 -100 79 -116 82 -7 1 -40 16
-74 33 -34 17 -64 29 -66 27 -3 -3 -21 10 -41 29 -63 60 -49 156 25 179 67 20
111 -13 122 -92 4 -24 7 -25 86 -27 l82 -2 -6 56 c-6 60 -47 143 -71 143 -8 0
-14 4 -14 9 0 5 -12 13 -27 19 -71 27 -172 34 -234 16z"/>
<path d="M0 6591 l0 -428 78 1 78 0 0 283 c-1 156 2 283 6 283 3 0 13 -19 22
-42 19 -52 115 -327 120 -348 3 -8 17 -51 33 -95 l29 -80 97 -1 97 -1 0 41 c1
80 1 662 0 738 l0 77 -77 -2 -78 -2 0 -283 c0 -155 -2 -282 -5 -282 -4 0 -110
294 -116 320 0 3 -5 16 -11 30 -6 14 -22 60 -36 102 -41 123 -32 115 -142 116
l-95 0 0 -427z"/>
<path d="M2473 6949 c-2 -40 1 -70 7 -70 6 -1 47 -2 93 -3 l82 -1 2 -350 c1
-192 2 -353 2 -356 1 -3 38 -5 84 -5 l82 1 2 315 c1 173 2 333 2 356 l1 41 80
-2 c44 -1 84 1 90 5 9 6 14 63 11 121 -1 14 -31 16 -269 16 l-267 1 -2 -69z"/>
<path d="M4508 7006 c-3 -10 -3 -43 1 -111 1 -19 7 -21 89 -20 l87 0 5 -355 5
-355 83 -2 82 -2 0 97 c1 53 2 214 3 357 l2 260 90 0 90 0 0 70 0 70 -267 1
c-193 2 -268 -1 -270 -10z"/>
<path d="M5710 7006 c-1 -22 -1 -662 0 -752 l0 -91 85 1 c78 0 85 2 86 21 1
11 0 25 -1 30 -2 6 -2 21 -1 35 2 14 3 31 2 38 -1 19 0 149 1 180 0 15 0 32
-2 37 -9 37 -1 40 95 40 52 0 96 -2 97 -5 0 -3 2 -86 4 -185 1 -99 3 -183 3
-186 1 -3 38 -5 84 -5 l82 1 2 427 2 426 -84 -1 c-69 -1 -85 -4 -86 -17 0 -8
-1 -82 -1 -163 l-1 -148 -99 2 -99 1 1 42 c0 22 0 48 -1 56 0 8 0 31 1 50 0
19 -1 50 -3 68 -2 17 -1 32 3 32 3 0 4 17 2 38 l-4 38 -84 1 c-56 0 -84 -3
-84 -11z"/>
<path d="M6959 7001 c-4 -77 -3 -825 1 -830 3 -4 112 -8 243 -8 209 0 237 2
238 16 4 81 2 114 -6 120 -5 4 -76 7 -157 6 -126 0 -148 2 -149 15 -4 74 2
204 10 209 5 3 68 6 140 5 l131 -1 0 72 0 72 -136 -2 c-74 0 -138 3 -141 8 -5
8 -6 43 -4 152 l1 41 148 -1 147 0 3 71 3 70 -236 1 c-210 0 -235 -1 -236 -16z"/>
<path d="M8985 7006 c-6 -16 1 -668 7 -686 11 -35 38 -92 50 -103 12 -12 47
-32 100 -58 9 -5 61 -7 115 -6 111 4 159 22 206 79 52 62 58 106 60 461 l2
325 -87 0 -88 -1 0 -323 c0 -178 0 -326 0 -329 2 -13 -45 -85 -54 -86 -79 -10
-120 11 -135 69 -5 20 -10 168 -10 327 0 160 0 302 0 316 -1 27 -1 27 -82 26
-49 0 -82 -4 -84 -11z"/>
<path d="M10220 7011 c-4 -43 0 -833 4 -840 3 -4 38 -8 78 -7 l73 1 0 293 c0
160 2 292 5 292 3 0 17 -37 31 -83 44 -137 101 -300 116 -335 8 -18 16 -40 18
-50 2 -9 12 -39 22 -67 l19 -50 97 -1 97 -1 1 371 c0 204 0 380 0 391 0 11 -1
36 -1 56 l-1 36 -77 -1 -77 -1 0 -170 c0 -93 -4 -176 -8 -182 -5 -7 -4 -13 0
-13 7 0 9 -164 3 -205 -1 -5 -10 15 -20 45 -28 85 -130 373 -137 390 -3 8 -7
22 -9 31 -2 9 -12 37 -23 62 l-20 46 -95 -1 c-53 -1 -96 -4 -96 -7z"/>
<path d="M11499 7012 c-1 -4 -2 -197 -3 -429 l-1 -421 80 3 c44 1 83 3 86 4 3
0 5 191 5 424 l-1 422 -82 2 c-46 2 -84 0 -84 -5z"/>
<path d="M12330 7007 c0 -5 4 -26 10 -46 10 -39 46 -191 54 -231 9 -47 15 -72
21 -90 3 -10 7 -31 10 -46 2 -16 15 -76 29 -134 15 -58 29 -121 32 -140 3 -19
8 -38 10 -41 2 -4 6 -24 10 -45 11 -71 11 -71 130 -70 87 1 108 4 110 16 1 8
14 65 28 127 14 61 28 122 30 135 3 12 5 23 6 23 2 0 5 16 14 60 8 40 10 50
42 185 14 63 28 124 29 135 2 11 4 20 5 20 2 0 8 26 25 117 l7 36 -86 0 c-47
0 -86 -3 -87 -7 0 -3 -2 -13 -4 -21 -20 -88 -37 -171 -41 -199 -2 -18 -6 -36
-8 -40 -3 -3 -7 -26 -11 -51 -4 -25 -8 -47 -10 -50 -2 -3 -6 -26 -10 -50 -3
-25 -8 -53 -11 -62 -6 -21 -12 -52 -20 -103 -3 -22 -7 -41 -9 -43 -3 -3 -26
96 -30 128 -1 8 -5 29 -8 45 -4 17 -9 46 -13 65 -7 44 -12 65 -14 65 -1 0 -3
11 -4 25 -2 14 -6 40 -10 58 -3 17 -8 46 -11 62 -3 17 -12 62 -20 101 -8 39
-15 72 -15 74 0 2 -40 4 -90 3 -53 0 -90 -5 -90 -11z"/>
<path d="M13590 7006 c-1 -17 -1 -757 -1 -802 l1 -41 243 1 242 0 -2 64 c-1
36 -6 68 -12 71 -6 4 -74 7 -151 6 -83 -1 -144 3 -147 9 -9 14 -9 97 0 103 4
2 4 9 0 16 -9 15 -10 57 -1 63 4 3 5 11 1 19 -6 17 -10 17 147 19 63 0 120 4
125 8 8 5 12 91 6 128 -1 3 -63 6 -138 6 -96 0 -138 3 -138 11 0 6 -3 14 -7
18 -4 4 -3 18 2 31 5 13 6 24 2 24 -4 0 -7 16 -7 35 0 19 4 35 8 35 4 0 3 9
-3 19 -5 11 -7 21 -3 24 5 2 74 3 156 3 l147 -1 0 71 0 71 -235 0 c-161 0
-235 -4 -235 -11z"/>
<path d="M14749 6967 c-3 -282 0 -790 6 -795 4 -4 42 -7 85 -7 l78 0 0 165 c1
91 1 172 1 180 1 20 91 21 138 1 43 -18 52 -47 57 -187 2 -66 8 -130 14 -141
10 -18 20 -20 96 -19 46 1 88 4 92 9 4 4 3 7 -3 7 -16 0 -25 44 -29 140 -7
181 -21 222 -85 249 -39 16 -50 28 -26 28 25 0 69 37 89 77 14 28 22 63 23
109 4 109 -27 172 -103 209 -43 21 -62 23 -239 25 l-193 2 -1 -52z m308 -87
c38 -14 61 -61 58 -121 -4 -81 -53 -118 -150 -115 l-40 1 -5 55 c-3 30 -4 85
-2 123 l4 67 52 0 c29 0 66 -5 83 -10z"/>
<path d="M17210 6954 c-1 -35 -1 -138 -1 -229 0 -91 0 -254 1 -363 l0 -199 85
1 86 0 -1 284 c-1 156 0 286 2 287 2 2 2 66 0 142 l-3 139 -85 1 -84 1 0 -64z"/>
<path d="M18053 6946 l2 -71 88 1 c72 0 87 -2 88 -15 1 -9 2 -169 3 -356 l1
-340 85 0 85 0 2 330 c0 182 1 341 2 356 1 25 1 25 89 25 100 -1 99 -1 94 88
l-4 53 -269 0 -268 0 2 -71z"/>
<path d="M19210 6996 c19 -50 83 -202 88 -211 4 -5 7 -14 8 -20 1 -5 26 -64
55 -130 l54 -120 2 -150 c1 -82 2 -162 2 -176 1 -25 1 -26 84 -25 l82 1 2 150
c2 180 4 197 37 269 14 31 26 58 26 60 0 2 12 30 27 62 15 33 27 61 28 64 5
16 19 52 40 100 43 102 58 135 61 142 2 3 -38 6 -90 5 l-95 -1 -26 -75 c-73
-208 -90 -250 -96 -239 -3 7 -28 78 -54 158 -27 80 -53 148 -59 152 -5 4 -49
7 -97 6 -85 0 -87 -1 -79 -22z"/>
</g>
</svg>
