<svg xmlns="http://www.w3.org/2000/svg" viewBox="0 0 649.07 205.82" fill="#39414E"><g id="レイヤー_2" data-name="レイヤー 2"><g id="レイヤー_1-2" data-name="レイヤー 1"><path d="M13.08,196.64h.07v-19h5.08V205.4H11.92L5.15,185.94H5.07V205.4H0V177.62H6.38Z"/><path d="M41,185.69a13.28,13.28,0,0,1,1.27-4.57,7.19,7.19,0,0,1,2.83-3,9.89,9.89,0,0,1,5-1.07,9.89,9.89,0,0,1,5,1.07,7.17,7.17,0,0,1,2.82,3,13.06,13.06,0,0,1,1.28,4.57,55.11,55.11,0,0,1,.28,5.82,54.77,54.77,0,0,1-.28,5.83,13,13,0,0,1-1.28,4.55A6.74,6.74,0,0,1,55,204.81a10.27,10.27,0,0,1-5,1,10.27,10.27,0,0,1-5-1,6.76,6.76,0,0,1-2.83-2.92A13.16,13.16,0,0,1,41,197.34a58.65,58.65,0,0,1,0-11.65Zm5.39,10.58a12.79,12.79,0,0,0,.54,3.19,3.51,3.51,0,0,0,1.15,1.79,3.72,3.72,0,0,0,4,0,3.45,3.45,0,0,0,1.15-1.79,13.27,13.27,0,0,0,.54-3.19c.09-1.31.14-2.89.14-4.76s-.05-3.45-.14-4.75a13.55,13.55,0,0,0-.54-3.19,3.51,3.51,0,0,0-1.15-1.81,3.78,3.78,0,0,0-4,0,3.57,3.57,0,0,0-1.15,1.81,13,13,0,0,0-.54,3.19c-.09,1.3-.14,2.88-.14,4.75S46.31,195,46.4,196.27Z"/><path d="M98,182.21H92V205.4H86.44V182.21h-6v-4.59H98Z"/><path d="M164.13,182.21h-6V205.4h-5.54V182.21h-6v-4.59h17.54Z"/><path d="M191.28,177.62v10.62h6.46V177.62h5.53V205.4h-5.53V193.06h-6.46V205.4h-5.54V177.62Z"/><path d="M241.69,182.21h-9.81v6.53h9.23v4.6h-9.23v7.46h10.19v4.6H226.35V177.62h15.34Z"/><path d="M297.72,197a11.59,11.59,0,0,0,.14,1.93,4.13,4.13,0,0,0,.5,1.52,2.74,2.74,0,0,0,1,1,3.69,3.69,0,0,0,3.22,0,3,3,0,0,0,1-1,4.53,4.53,0,0,0,.5-1.52,12.83,12.83,0,0,0,.13-1.93V177.62h5.54V197a11.44,11.44,0,0,1-.73,4.38,7.1,7.1,0,0,1-2,2.74,6.58,6.58,0,0,1-2.81,1.36,14.63,14.63,0,0,1-3.27.35,16.64,16.64,0,0,1-3.27-.31,6.59,6.59,0,0,1-2.81-1.26,6.44,6.44,0,0,1-1.95-2.71,11.85,11.85,0,0,1-.74-4.55V177.62h5.54Z"/><path d="M345.52,196.64h.08v-19h5.07V205.4h-6.3l-6.77-19.46h-.08V205.4h-5.07V177.62h6.38Z"/><path d="M374,177.62h5.54V205.4H374Z"/><path d="M410.89,198.16H411l4.07-20.54h5.73l-6.3,27.78h-7.12l-6.3-27.78H407Z"/><path d="M457.42,182.21h-9.8v6.53h9.22v4.6h-9.22v7.46H457.8v4.6H442.08V177.62h15.34Z"/><path d="M490,177.62a7.64,7.64,0,0,1,5.38,1.77c1.29,1.18,1.92,3,1.92,5.39a8.39,8.39,0,0,1-1.11,4.57,5.13,5.13,0,0,1-3.46,2.27v.08a5,5,0,0,1,3,1.36,5.87,5.87,0,0,1,1.19,3.39c.05.52.09,1.08.11,1.69s.06,1.29.08,2c.05,1.48.13,2.61.23,3.39a2.15,2.15,0,0,0,1,1.59v.24h-6a3.1,3.1,0,0,1-.54-1.35c-.07-.5-.12-1-.15-1.57l-.15-5.33a4.39,4.39,0,0,0-.81-2.57,3,3,0,0,0-2.46-.93h-3V205.4H479.8V177.62Zm-2.39,12.14a4.47,4.47,0,0,0,3.08-1,4.09,4.09,0,0,0,1.08-3.21c0-2.56-1.29-3.85-3.85-3.85h-2.61v8Z"/><path d="M524.87,197.54a8.75,8.75,0,0,0,.16,1.77,3.08,3.08,0,0,0,.57,1.34,2.83,2.83,0,0,0,1.14.85,4.39,4.39,0,0,0,1.78.32,3.48,3.48,0,0,0,2.29-.84,3.16,3.16,0,0,0,1-2.59,4.58,4.58,0,0,0-.25-1.61,3.17,3.17,0,0,0-.82-1.23,6.06,6.06,0,0,0-1.52-1,21.56,21.56,0,0,0-2.33-.91,19.31,19.31,0,0,1-3.19-1.37,8.5,8.5,0,0,1-2.25-1.73,6.19,6.19,0,0,1-1.33-2.29,9.84,9.84,0,0,1-.42-3c0-2.75.76-4.79,2.27-6.14a9,9,0,0,1,6.23-2,13.48,13.48,0,0,1,3.4.41,7,7,0,0,1,2.69,1.33,6,6,0,0,1,1.77,2.33,8.35,8.35,0,0,1,.64,3.4v.78h-5.31a5.62,5.62,0,0,0-.69-3,2.53,2.53,0,0,0-2.31-1.07,3.86,3.86,0,0,0-1.54.27,2.46,2.46,0,0,0-1.48,1.75,5.34,5.34,0,0,0-.13,1.21,4.07,4.07,0,0,0,.53,2.16,4.84,4.84,0,0,0,2.31,1.61l4.27,1.87a12.67,12.67,0,0,1,2.58,1.46,7.18,7.18,0,0,1,1.59,1.63,5.36,5.36,0,0,1,.83,1.93,11.08,11.08,0,0,1,.23,2.33q0,4.4-2.52,6.4a11,11,0,0,1-7,2c-3.13,0-5.36-.68-6.71-2.06a8.11,8.11,0,0,1-2-5.91v-1.13h5.54Z"/><path d="M559.86,177.62h5.54V205.4h-5.54Z"/><path d="M604.82,182.21h-6V205.4h-5.54V182.21h-6v-4.59h17.54Z"/><path d="M634.46,188.36h.08l3.85-10.74h6l-7.11,16.84V205.4h-5.54V194.46l-7.11-16.84h6.23Z"/><path d="M81.87,1.83v20.6H22.47V62.81h53.6V83.2H22.47v59.34H0V1.83Z"/><path d="M146.12,144.37c-29.8,0-49.92-19-49.92-63.21V63.21C96.2,19,116.32,0,146.12,0c30,0,50.12,19,50.12,63.21V81.16C196.24,125.41,176.12,144.37,146.12,144.37ZM118.64,81.16c0,30.38,9.68,42.62,27.48,42.62s27.68-12.24,27.68-42.62V63.21c0-30.38-9.87-42.61-27.68-42.61s-27.48,12.23-27.48,42.61Z"/><path d="M294.36,142.54l-25.74-57.1H242.69v57.1H220.24V1.83h45.48c30.77,0,49.15,14.08,49.15,42,0,19.37-8.71,31.81-24.19,37.73l28.45,61ZM264.17,65.05c19,0,28.25-5.3,28.25-21.21s-9.29-21.41-28.25-21.41H242.69V65.05Z"/><path d="M340.8,113.58a23,23,0,0,0,19.55,10.2c15.67,0,23.61-9,23.61-36.91v-85H406.4v85c0,41.6-17,57.5-45.08,57.5-17,0-31-6.52-39.29-19.57Z"/><path d="M480.33,144.37c-29.8,0-49.93-19-49.93-63.21V63.21C430.4,19,450.53,0,480.33,0c30,0,50.12,19,50.12,63.21V81.16C530.45,125.41,510.32,144.37,480.33,144.37ZM452.85,81.16c0,30.38,9.67,42.62,27.48,42.62S508,111.54,508,81.16V63.21c0-30.38-9.87-42.61-27.67-42.61s-27.48,12.23-27.48,42.61Z"/><path d="M597.4,1.83c31.35,0,47.41,12.24,47.41,36.51,0,14.48-7.93,26.1-19.54,30.58,15.09,4.49,23.8,15.5,23.8,33.24,0,21.21-12.77,40.38-47.41,40.38H554.44V1.83ZM576.89,59.34h21.87c16.64,0,23.61-8,23.61-19.58,0-11-5.23-17.53-26.51-17.53h-19Zm0,62.81h23.42c18,0,26.31-7.75,26.31-21.21,0-14.89-9.28-21.21-29-21.21H576.89Z"/></g></g></svg>