<svg xmlns="http://www.w3.org/2000/svg" viewBox="0 0 1048.48 380.93"><g id="レイヤー_2" data-name="レイヤー 2"><g id="レイヤー_1-2" data-name="レイヤー 1"><path d="M21.27,390.12h.13V359.17h8.26v45.2H19.4l-11-31.65H8.26v31.65H0v-45.2H10.38Z" transform="translate(0 -24.13)"/><path d="M66.73,372.3a21.21,21.21,0,0,1,2.07-7.43A11.57,11.57,0,0,1,73.4,360a16,16,0,0,1,8.07-1.74A16.06,16.06,0,0,1,89.54,360a11.61,11.61,0,0,1,4.59,4.85,21,21,0,0,1,2.07,7.43,89.27,89.27,0,0,1,.47,9.47,88.7,88.7,0,0,1-.47,9.49,21,21,0,0,1-2.07,7.41,11,11,0,0,1-4.59,4.75,16.91,16.91,0,0,1-8.07,1.64,16.88,16.88,0,0,1-8.07-1.64,11,11,0,0,1-4.6-4.75,21.16,21.16,0,0,1-2.07-7.41,95.84,95.84,0,0,1,0-19Zm8.76,17.22a21.85,21.85,0,0,0,.88,5.19,5.78,5.78,0,0,0,1.87,2.91,6.11,6.11,0,0,0,6.45,0,5.79,5.79,0,0,0,1.88-2.91,21.85,21.85,0,0,0,.88-5.19q.21-3.19.21-7.75c0-3-.07-5.62-.21-7.72a22.22,22.22,0,0,0-.88-5.2,5.8,5.8,0,0,0-1.88-2.94,6.11,6.11,0,0,0-6.45,0,5.79,5.79,0,0,0-1.87,2.94,22.22,22.22,0,0,0-.88,5.2c-.14,2.1-.22,4.68-.22,7.72S75.35,387.39,75.49,389.52Z" transform="translate(0 -24.13)"/><path d="M159.43,366.64h-9.76v37.73h-9V366.64h-9.76v-7.47h28.54Z" transform="translate(0 -24.13)"/><path d="M267.05,366.64h-9.76v37.73h-9V366.64h-9.76v-7.47h28.53Z" transform="translate(0 -24.13)"/><path d="M311.23,359.17v17.28h10.51V359.17h9v45.2h-9V384.3H311.23v20.07h-9v-45.2Z" transform="translate(0 -24.13)"/><path d="M393.25,366.64H377.3v10.63h15v7.47h-15v12.15h16.58v7.48H368.29v-45.2h25Z" transform="translate(0 -24.13)"/><path d="M484.42,390.69a20.27,20.27,0,0,0,.22,3.14,7.06,7.06,0,0,0,.81,2.46,4.38,4.38,0,0,0,1.63,1.65,6,6,0,0,0,5.23,0,4.42,4.42,0,0,0,1.59-1.65,6.86,6.86,0,0,0,.81-2.46,20.27,20.27,0,0,0,.22-3.14V359.17h9v31.52a18.42,18.42,0,0,1-1.2,7.12,11.49,11.49,0,0,1-3.18,4.47,10.82,10.82,0,0,1-4.57,2.21,24.5,24.5,0,0,1-5.32.57,28,28,0,0,1-5.32-.5,10.81,10.81,0,0,1-4.57-2.06,10.51,10.51,0,0,1-3.19-4.4,19.53,19.53,0,0,1-1.19-7.41V359.17h9Z" transform="translate(0 -24.13)"/><path d="M562.2,390.12h.12V359.17h8.26v45.2H560.32l-11-31.65h-.13v31.65h-8.26v-45.2h10.39Z" transform="translate(0 -24.13)"/><path d="M608.56,359.17h9v45.2h-9Z" transform="translate(0 -24.13)"/><path d="M668.56,392.59h.19l6.63-33.42h9.33l-10.27,45.2H662.87l-10.26-45.2h9.63Z" transform="translate(0 -24.13)"/><path d="M744.26,366.64H728.32v10.63h15v7.47h-15v12.15h16.57v7.48H719.3v-45.2h25Z" transform="translate(0 -24.13)"/><path d="M797.32,359.17q5.64,0,8.76,2.88t3.13,8.77a13.7,13.7,0,0,1-1.81,7.43,8.42,8.42,0,0,1-5.63,3.71v.12a8.12,8.12,0,0,1,4.94,2.22c1,1.14,1.69,3,1.94,5.51.08.84.15,1.76.19,2.75s.08,2.1.13,3.32c.08,2.41.2,4.24.37,5.51A3.56,3.56,0,0,0,811,404v.38H801.2a4.91,4.91,0,0,1-.87-2.19c-.12-.82-.21-1.68-.25-2.56l-.25-8.67a7.16,7.16,0,0,0-1.31-4.18c-.8-1-2.13-1.52-4-1.52H789.7v19.12h-9v-45.2Zm-3.87,19.75a7.36,7.36,0,0,0,5-1.55c1.16-1,1.75-2.78,1.75-5.23q0-6.25-6.26-6.26H789.7v13Z" transform="translate(0 -24.13)"/><path d="M854,391.58a15,15,0,0,0,.25,2.88,4.93,4.93,0,0,0,.94,2.18,4.57,4.57,0,0,0,1.84,1.39,7.26,7.26,0,0,0,2.91.51,5.72,5.72,0,0,0,3.73-1.36,5.15,5.15,0,0,0,1.66-4.21,7.63,7.63,0,0,0-.41-2.62,5.15,5.15,0,0,0-1.35-2,9.18,9.18,0,0,0-2.47-1.61,32.81,32.81,0,0,0-3.78-1.49,31.23,31.23,0,0,1-5.2-2.22,13.87,13.87,0,0,1-3.65-2.81,10,10,0,0,1-2.17-3.74,15.84,15.84,0,0,1-.69-4.9q0-6.72,3.7-10c2.45-2.19,5.84-3.29,10.13-3.29A21.46,21.46,0,0,1,865,359a11.52,11.52,0,0,1,4.38,2.15,10.08,10.08,0,0,1,2.88,3.8,13.46,13.46,0,0,1,1,5.54v1.26h-8.64a9.17,9.17,0,0,0-1.12-5,4.14,4.14,0,0,0-3.76-1.74,6.32,6.32,0,0,0-2.5.44,4.22,4.22,0,0,0-1.59,1.18,4,4,0,0,0-.82,1.67,9.15,9.15,0,0,0-.22,2,6.53,6.53,0,0,0,.88,3.51,7.89,7.89,0,0,0,3.76,2.63l6.94,3a20.75,20.75,0,0,1,4.19,2.37,11.43,11.43,0,0,1,2.6,2.66,8.82,8.82,0,0,1,1.34,3.13,17.16,17.16,0,0,1,.38,3.8q0,7.16-4.1,10.41t-11.42,3.26q-7.63,0-10.92-3.35T845,392.09v-1.84h9Z" transform="translate(0 -24.13)"/><path d="M911,359.17h9v45.2h-9Z" transform="translate(0 -24.13)"/><path d="M984.1,366.64h-9.77v37.73h-9V366.64h-9.76v-7.47H984.1Z" transform="translate(0 -24.13)"/><path d="M1032.33,376.64h.13l6.26-17.47h9.76l-11.58,27.41v17.79h-9V386.58l-11.57-27.41h10.13Z" transform="translate(0 -24.13)"/><path d="M113.68,40.11H235.93l-3.15,29.14h-94l-8,72.08h82.27l-3.43,29.14H127.39l-10.57,96.2H88.25Z" transform="translate(0 -24.13)"/><path d="M294.2,269.8a65.05,65.05,0,0,1-22.14-4.07,63.32,63.32,0,0,1-20.42-12.07,57.61,57.61,0,0,1-14.57-19.89q-5.43-11.91-5.43-27.89A87.72,87.72,0,0,1,235.5,181a78.26,78.26,0,0,1,11.85-24,62.17,62.17,0,0,1,21-18q13-7,31.84-7.05a62.48,62.48,0,0,1,53.27,29.62q9,14.25,9,34a91,91,0,0,1-2.14,18.64,85.67,85.67,0,0,1-6.86,19.9,66.53,66.53,0,0,1-12.56,17.7,60.6,60.6,0,0,1-19.43,13Q309.9,269.8,294.2,269.8Zm1.14-24.44q14.28,0,23.13-7.52a43,43,0,0,0,12.86-19,66.11,66.11,0,0,0,4-21.78q0-11-3.29-18.64a35.62,35.62,0,0,0-8.85-12.69,36.91,36.91,0,0,0-12-7.37,35.54,35.54,0,0,0-12.14-2.35q-14.28,0-23.13,7.52a44.12,44.12,0,0,0-13,18.81,64.24,64.24,0,0,0-4.14,22.24q0,14.1,5.57,23a36,36,0,0,0,14,13.31A36.45,36.45,0,0,0,295.34,245.36Z" transform="translate(0 -24.13)"/><path d="M429,136.94l-2,31.65a64.68,64.68,0,0,1,15-20.21,69.18,69.18,0,0,1,19-12.23q10-4.23,18-4.54l-4.29,29.46a38.08,38.08,0,0,0-24.28,5.48,56.63,56.63,0,0,0-17.85,17.55,53.53,53.53,0,0,0-8.42,23.34l-6.86,59.23H391L405.3,136.94Z" transform="translate(0 -24.13)"/><path d="M562.11,312.73a59.57,59.57,0,0,0,16.85-18q6.57-10.8,8.57-26.47l14.85-131.3H629L614.66,266.67q-2.56,22.56-12.28,38.86A66.41,66.41,0,0,1,575,330.91ZM603,93.07a17.66,17.66,0,0,1,5.29-12.22,15.48,15.48,0,0,1,12.14-4.7,16.52,16.52,0,0,1,10.28,3.76q4.86,3.75,4.57,11.59a18,18,0,0,1-5.14,12.22,15.69,15.69,0,0,1-11.71,5,16.5,16.5,0,0,1-10.57-3.92Q603,100.91,603,93.07Z" transform="translate(0 -24.13)"/><path d="M719.78,269.8a65.05,65.05,0,0,1-22.14-4.07,63.32,63.32,0,0,1-20.42-12.07,57.61,57.61,0,0,1-14.57-19.89q-5.43-11.91-5.43-27.89A87.72,87.72,0,0,1,661.08,181a78.26,78.26,0,0,1,11.85-24,62.17,62.17,0,0,1,21-18q13-7,31.84-7.05A62.48,62.48,0,0,1,779,161.54q9,14.25,9,34a91,91,0,0,1-2.14,18.64,85.67,85.67,0,0,1-6.86,19.9,66.53,66.53,0,0,1-12.56,17.7,60.71,60.71,0,0,1-19.43,13Q735.49,269.8,719.78,269.8Zm1.14-24.44q14.28,0,23.13-7.52a43,43,0,0,0,12.86-19,66.11,66.11,0,0,0,4-21.78q0-11-3.29-18.64a35.62,35.62,0,0,0-8.85-12.69,37,37,0,0,0-12-7.37,35.54,35.54,0,0,0-12.14-2.35q-14.28,0-23.14,7.52a44.19,44.19,0,0,0-13,18.81,64.24,64.24,0,0,0-4.14,22.24q0,14.1,5.57,23a36,36,0,0,0,14,13.31A36.42,36.42,0,0,0,720.92,245.36Z" transform="translate(0 -24.13)"/><path d="M890,269.49q-17.43,0-29.28-8.15a51.5,51.5,0,0,1-17.85-21l4-8.15-4,34.47H816.32L843.45,24.13H870L854.3,165.45V154.8a61.48,61.48,0,0,1,20-16.61,57.66,57.66,0,0,1,27.7-6.58A56,56,0,0,1,930.28,139q12.86,7.38,20.28,21.78T958,196.48a81.94,81.94,0,0,1-8,35.41,67.07,67.07,0,0,1-23.14,27.26Q911.71,269.49,890,269.49Zm-2.86-24.76q12,0,20.14-4.54a42.18,42.18,0,0,0,13.42-11.59,46.08,46.08,0,0,0,7.57-15,55.38,55.38,0,0,0,2.29-15.19q0-13.47-4.57-23.19a34.89,34.89,0,0,0-13-15q-8.43-5.32-20.42-5.33a38.75,38.75,0,0,0-24.71,8.46,48.32,48.32,0,0,0-15.57,21.62l-3.14,26.32a89.82,89.82,0,0,0,4,11,42.87,42.87,0,0,0,6.86,11,33.7,33.7,0,0,0,11,8.3A36.3,36.3,0,0,0,887.15,244.73Z" transform="translate(0 -24.13)"/></g></g></svg>