<svg xmlns="http://www.w3.org/2000/svg" width="176.75" height="54.295" viewBox="0 0 176.75 54.295">
  <g id="グループ_3" data-name="グループ 3" transform="translate(-178.884 -216.85)">
    <g id="グループ_1" data-name="グループ 1" transform="translate(194.253 216.85)">
      <path id="パス_1" data-name="パス 1" d="M274.053,260.121h-4l3.918-35.391h.042L287.381,250.3l-1.746-.427,18.907-25.144h.042l-3.875,35.391h-4.13l2.768-24.954v2.325L285.72,255.8h-.085l-9.751-18.312.937-2.135Z" transform="translate(-270.05 -223.402)"/>
      <path id="パス_2" data-name="パス 2" d="M493.455,330.738a5.476,5.476,0,0,0,2.065-.4,8.651,8.651,0,0,0,1.852-1.02l1.448,3.416a11.906,11.906,0,0,1-2.768,1.281,10.273,10.273,0,0,1-7.835-.688,8.2,8.2,0,0,1-3.279-3.392,11.331,11.331,0,0,1-1.192-5.408,11.48,11.48,0,0,1,.66-3.8,12.208,12.208,0,0,1,1.916-3.511,9.286,9.286,0,0,1,3.172-2.586,9.761,9.761,0,0,1,4.471-.973,9.332,9.332,0,0,1,2.959.474,7.6,7.6,0,0,1,2.619,1.518,8.477,8.477,0,0,1,2.023,2.8,15.55,15.55,0,0,1,1.214,4.364l-15.117,4.649-.639-2.7,12.9-4.08-1.448.712a6.226,6.226,0,0,0-1.7-3.036,4.1,4.1,0,0,0-2.938-1.186,5.5,5.5,0,0,0-3.279.973,6.31,6.31,0,0,0-2.087,2.538,7.923,7.923,0,0,0-.724,3.368,7.718,7.718,0,0,0,.809,3.748A5.449,5.449,0,0,0,490.687,330,5.6,5.6,0,0,0,493.455,330.738Z" transform="translate(-447.722 -297.339)"/>
      <path id="パス_3" data-name="パス 3" d="M611.455,314.184l-.128,4.507-.128-.712a10.162,10.162,0,0,1,3.172-3.368,7.673,7.673,0,0,1,4.28-1.233,5.21,5.21,0,0,1,3.449,1.067,4.513,4.513,0,0,1,1.49,3.155l-.128.142a10.492,10.492,0,0,1,3.194-3.155,7.322,7.322,0,0,1,3.96-1.21,4.684,4.684,0,0,1,3.875,1.637,5.768,5.768,0,0,1,1.107,4.246l-1.576,14.564h-4l1.448-12.951a5.042,5.042,0,0,0-.4-2.514,2.115,2.115,0,0,0-1.937-1.091,4.689,4.689,0,0,0-2.938,1.02,7.9,7.9,0,0,0-2.172,2.657,10.674,10.674,0,0,0-1.107,3.534l-1.022,9.346h-4l1.405-12.951a4.483,4.483,0,0,0-.4-2.514,2.259,2.259,0,0,0-2.023-1.091,4.663,4.663,0,0,0-2.874,1.02,7.493,7.493,0,0,0-2.172,2.7,11.507,11.507,0,0,0-1.086,3.535l-1.022,9.3h-3.96l2.129-19.641Z" transform="translate(-549.158 -297.105)"/>
      <path id="パス_4" data-name="パス 4" d="M812.5,254a7.441,7.441,0,0,1-4.365-1.233,7.768,7.768,0,0,1-2.661-3.179l.6-1.233-.6,5.218h-3.96l4.045-36.72h3.96l-2.342,21.4v-1.613a9.176,9.176,0,0,1,2.981-2.515,8.5,8.5,0,0,1,4.13-1,8.237,8.237,0,0,1,4.216,1.115,7.761,7.761,0,0,1,3.023,3.3,11.885,11.885,0,0,1,1.107,5.408,12.563,12.563,0,0,1-1.192,5.361,10.122,10.122,0,0,1-3.449,4.127A9.4,9.4,0,0,1,812.5,254Zm-.426-3.748a6.009,6.009,0,0,0,3-.688,6.327,6.327,0,0,0,2-1.755,7.034,7.034,0,0,0,1.128-2.277,8.5,8.5,0,0,0,.341-2.3,8.3,8.3,0,0,0-.681-3.511,5.265,5.265,0,0,0-1.937-2.277,5.52,5.52,0,0,0-3.045-.806,5.717,5.717,0,0,0-3.683,1.281,7.3,7.3,0,0,0-2.321,3.273l-.469,3.985a13.748,13.748,0,0,0,.6,1.66,6.528,6.528,0,0,0,1.022,1.66,5.038,5.038,0,0,0,1.639,1.257A5.348,5.348,0,0,0,812.07,250.249Z" transform="translate(-711.917 -216.85)"/>
      <path id="パス_5" data-name="パス 5" d="M946.1,330.738a5.476,5.476,0,0,0,2.065-.4,8.655,8.655,0,0,0,1.852-1.02l1.448,3.416a11.908,11.908,0,0,1-2.768,1.281,10.274,10.274,0,0,1-7.835-.688,8.2,8.2,0,0,1-3.279-3.392,11.333,11.333,0,0,1-1.192-5.408,11.477,11.477,0,0,1,.66-3.8,12.205,12.205,0,0,1,1.916-3.511,9.286,9.286,0,0,1,3.172-2.586,9.761,9.761,0,0,1,4.471-.973,9.334,9.334,0,0,1,2.96.474,7.6,7.6,0,0,1,2.619,1.518,8.48,8.48,0,0,1,2.023,2.8,15.555,15.555,0,0,1,1.213,4.364l-15.117,4.649-.639-2.7,12.9-4.08-1.448.712a6.223,6.223,0,0,0-1.7-3.036,4.1,4.1,0,0,0-2.938-1.186,5.5,5.5,0,0,0-3.279.973,6.311,6.311,0,0,0-2.087,2.538,7.923,7.923,0,0,0-.724,3.368,7.718,7.718,0,0,0,.809,3.748A5.449,5.449,0,0,0,943.333,330,5.6,5.6,0,0,0,946.1,330.738Z" transform="translate(-824.062 -297.339)"/>
      <path id="パス_6" data-name="パス 6" d="M1064.06,314.184l-.3,4.791a9.8,9.8,0,0,1,2.236-3.06,10.307,10.307,0,0,1,2.832-1.85,7.686,7.686,0,0,1,2.683-.688l-.639,4.459a5.613,5.613,0,0,0-3.62.83,8.5,8.5,0,0,0-2.661,2.657,8.188,8.188,0,0,0-1.256,3.534l-1.022,8.966H1058.4l2.129-19.641Z" transform="translate(-925.498 -297.105)"/>
    </g>
    <g id="グループ_2" data-name="グループ 2" transform="translate(178.884 263.258)">
      <path id="パス_7" data-name="パス 7" d="M182.471,498.249h.02V493.03h1.393v7.62h-1.73l-1.856-5.336h-.021v5.336h-1.392v-7.62h1.75Z" transform="translate(-178.884 -492.881)"/>
      <path id="パス_8" data-name="パス 8" d="M245.225,494.508a3.58,3.58,0,0,1,.349-1.254,1.956,1.956,0,0,1,.775-.817,3.3,3.3,0,0,1,2.721,0,1.956,1.956,0,0,1,.775.817,3.576,3.576,0,0,1,.349,1.254,16.3,16.3,0,0,1,0,3.2,3.56,3.56,0,0,1-.349,1.248,1.855,1.855,0,0,1-.775.8,3.472,3.472,0,0,1-2.721,0,1.855,1.855,0,0,1-.775-.8,3.564,3.564,0,0,1-.349-1.248,16.3,16.3,0,0,1,0-3.2Zm1.478,2.9a3.633,3.633,0,0,0,.148.875.973.973,0,0,0,.316.491,1.031,1.031,0,0,0,1.087,0,.975.975,0,0,0,.317-.491,3.681,3.681,0,0,0,.148-.875c.024-.359.037-.795.037-1.307s-.013-.946-.037-1.3a3.749,3.749,0,0,0-.148-.875.976.976,0,0,0-.317-.5,1.031,1.031,0,0,0-1.087,0,.975.975,0,0,0-.316.5,3.7,3.7,0,0,0-.148.875q-.038.533-.037,1.3T246.7,497.41Z" transform="translate(-233.976 -492.144)"/>
      <path id="パス_9" data-name="パス 9" d="M314.587,494.289h-1.646v6.36h-1.519v-6.36h-1.646V493.03h4.811Z" transform="translate(-287.711 -492.881)"/>
      <path id="パス_10" data-name="パス 10" d="M422.212,494.289h-1.645v6.36h-1.519v-6.36H417.4V493.03h4.811Z" transform="translate(-377.192 -492.881)"/>
      <path id="パス_11" data-name="パス 11" d="M482.618,493.03v2.914h1.772V493.03h1.518v7.62H484.39v-3.383h-1.772v3.383H481.1v-7.62Z" transform="translate(-430.152 -492.881)"/>
      <path id="パス_12" data-name="パス 12" d="M551.378,494.289h-2.689v1.793h2.532v1.259h-2.532v2.048h2.795v1.26H547.17v-7.62h4.208Z" transform="translate(-485.085 -492.881)"/>
      <path id="パス_13" data-name="パス 13" d="M655.813,498.344a3.42,3.42,0,0,0,.037.528,1.191,1.191,0,0,0,.137.416.738.738,0,0,0,.274.278,1.008,1.008,0,0,0,.881,0,.755.755,0,0,0,.269-.278,1.214,1.214,0,0,0,.137-.416,3.434,3.434,0,0,0,.037-.528V493.03H659.1v5.314a3.108,3.108,0,0,1-.2,1.2,1.919,1.919,0,0,1-.537.752,1.816,1.816,0,0,1-.77.374,4.1,4.1,0,0,1-.9.1,4.593,4.593,0,0,1-.9-.086,1.807,1.807,0,0,1-.77-.347,1.771,1.771,0,0,1-.537-.741,3.256,3.256,0,0,1-.2-1.249V493.03h1.519Z" transform="translate(-574.151 -492.881)"/>
      <path id="パス_14" data-name="パス 14" d="M723.393,498.249h.02V493.03h1.393v7.62h-1.73l-1.856-5.336H721.2v5.336h-1.392v-7.62h1.75Z" transform="translate(-628.619 -492.881)"/>
      <path id="パス_15" data-name="パス 15" d="M787.446,493.03h1.519v7.62h-1.519Z" transform="translate(-684.856 -492.881)"/>
      <path id="パス_16" data-name="パス 16" d="M834.183,498.665h.032l1.118-5.635H836.9l-1.73,7.62h-1.952l-1.729-7.62h1.624Z" transform="translate(-721.479 -492.881)"/>
      <path id="パス_17" data-name="パス 17" d="M902.394,494.289h-2.689v1.793h2.531v1.259h-2.531v2.048H902.5v1.26h-4.314v-7.62h4.208Z" transform="translate(-776.928 -492.881)"/>
      <path id="パス_18" data-name="パス 18" d="M962.372,493.03a2.1,2.1,0,0,1,1.476.485,1.912,1.912,0,0,1,.527,1.478,2.309,2.309,0,0,1-.306,1.254,1.414,1.414,0,0,1-.949.624v.022a1.368,1.368,0,0,1,.833.374,1.594,1.594,0,0,1,.327.928c.013.143.024.3.031.464s.014.354.021.56c.014.405.035.715.063.928a.6.6,0,0,0,.274.438v.064h-1.646a.832.832,0,0,1-.148-.368c-.02-.139-.035-.283-.042-.432l-.042-1.462a1.211,1.211,0,0,0-.221-.7.808.808,0,0,0-.675-.256h-.812v3.223h-1.519v-7.62Zm-.654,3.33a1.237,1.237,0,0,0,.844-.261,1.129,1.129,0,0,0,.3-.881.934.934,0,0,0-1.055-1.056h-.717v2.2Z" transform="translate(-827.961 -492.881)"/>
      <path id="パス_19" data-name="パス 19" d="M1025.412,497.757a2.521,2.521,0,0,0,.043.486.845.845,0,0,0,.158.368.781.781,0,0,0,.311.234,1.221,1.221,0,0,0,.49.086.963.963,0,0,0,.628-.23.864.864,0,0,0,.28-.71,1.271,1.271,0,0,0-.069-.443.875.875,0,0,0-.226-.336,1.605,1.605,0,0,0-.417-.272,5.866,5.866,0,0,0-.638-.251,5.385,5.385,0,0,1-.875-.374,2.338,2.338,0,0,1-.617-.475,1.7,1.7,0,0,1-.364-.629,2.679,2.679,0,0,1-.117-.827,2.148,2.148,0,0,1,.623-1.686,2.475,2.475,0,0,1,1.709-.555,3.669,3.669,0,0,1,.933.112,1.945,1.945,0,0,1,.739.363,1.707,1.707,0,0,1,.486.64,2.285,2.285,0,0,1,.174.934v.213h-1.456a1.548,1.548,0,0,0-.189-.838.7.7,0,0,0-.634-.293,1.053,1.053,0,0,0-.421.075.715.715,0,0,0-.269.2.689.689,0,0,0-.137.283,1.458,1.458,0,0,0-.037.331,1.108,1.108,0,0,0,.148.592,1.325,1.325,0,0,0,.634.443l1.17.512a3.55,3.55,0,0,1,.706.4,1.931,1.931,0,0,1,.438.448,1.48,1.48,0,0,1,.226.528,2.938,2.938,0,0,1,.064.64,2.108,2.108,0,0,1-.692,1.755,3.011,3.011,0,0,1-1.924.55,2.5,2.5,0,0,1-1.841-.566,2.223,2.223,0,0,1-.554-1.622v-.31h1.518Z" transform="translate(-881.444 -492.144)"/>
      <path id="パス_20" data-name="パス 20" d="M1089.838,493.03h1.519v7.62h-1.519Z" transform="translate(-936.271 -492.881)"/>
      <path id="パス_21" data-name="パス 21" d="M1139.254,494.289h-1.646v6.36h-1.519v-6.36h-1.646V493.03h4.811Z" transform="translate(-973.357 -492.881)"/>
      <path id="パス_22" data-name="パス 22" d="M1197.9,495.975h.021l1.055-2.945h1.646l-1.952,4.621v3h-1.519v-3l-1.95-4.621h1.709Z" transform="translate(-1023.874 -492.881)"/>
    </g>
  </g>
</svg>
