<svg xmlns="http://www.w3.org/2000/svg" viewBox="0 0 997.71 382.17"><defs><style>.cls-1{stroke:#fff;stroke-miterlimit:10;}</style></defs><g id="レイヤー_2" data-name="レイヤー 2"><g id="レイヤー_1-2" data-name="レイヤー 1"><path d="M20.09,368.07h.11V338.84H28v42.68H18.32L7.92,351.63H7.8v29.89H0V338.84H9.8Z"/><path d="M63,351.24a20.13,20.13,0,0,1,1.95-7,11,11,0,0,1,4.35-4.58A15.2,15.2,0,0,1,76.93,338a15.23,15.23,0,0,1,7.62,1.64,11,11,0,0,1,4.34,4.58,19.92,19.92,0,0,1,2,7,82.3,82.3,0,0,1,.44,8.94,81.9,81.9,0,0,1-.44,9,19.87,19.87,0,0,1-2,7,10.4,10.4,0,0,1-4.34,4.49,16,16,0,0,1-7.62,1.55,15.94,15.94,0,0,1-7.62-1.55A10.42,10.42,0,0,1,65,376.13a20.09,20.09,0,0,1-1.95-7,91.25,91.25,0,0,1,0-17.9Zm8.28,16.26a19.88,19.88,0,0,0,.83,4.9,5.5,5.5,0,0,0,1.76,2.75,5,5,0,0,0,3.05.87,4.9,4.9,0,0,0,3-.87,5.52,5.52,0,0,0,1.78-2.75,20.93,20.93,0,0,0,.82-4.9q.21-3,.21-7.32t-.21-7.3a21.32,21.32,0,0,0-.82-4.9A5.53,5.53,0,0,0,80,345.2a5,5,0,0,0-3-.86,5,5,0,0,0-3.05.86A5.51,5.51,0,0,0,72.12,348a20.23,20.23,0,0,0-.83,4.9q-.21,3-.21,7.3T71.29,367.5Z"/><path d="M150.55,345.89h-9.22v35.63h-8.51V345.89H123.6v-7.05h27Z"/><path d="M252.18,345.89H243v35.63h-8.51V345.89h-9.22v-7.05h27Z"/><path d="M293.89,338.84v16.32h9.92V338.84h8.51v42.68h-8.51V362.57h-9.92v18.95h-8.51V338.84Z"/><path d="M371.34,345.89H356.28v10h14.18V363H356.28v11.47h15.65v7.06H347.77V338.84h23.57Z"/><path d="M457.44,368.6a19.23,19.23,0,0,0,.2,3,6.8,6.8,0,0,0,.77,2.33,4.17,4.17,0,0,0,1.53,1.56,4.84,4.84,0,0,0,2.46.57,4.77,4.77,0,0,0,2.48-.57,4.27,4.27,0,0,0,1.51-1.56,6.8,6.8,0,0,0,.76-2.33,19.16,19.16,0,0,0,.21-3V338.84h8.51V368.6a17.34,17.34,0,0,1-1.13,6.73,10.68,10.68,0,0,1-3,4.21,10.07,10.07,0,0,1-4.32,2.09,22.39,22.39,0,0,1-5,.54,24.93,24.93,0,0,1-5-.48,9.57,9.57,0,0,1-7.33-6.09,18.34,18.34,0,0,1-1.12-7V338.84h8.51Z"/><path d="M530.88,368.07H531V338.84h7.81v42.68h-9.7l-10.39-29.89h-.12v29.89h-7.8V338.84h9.8Z"/><path d="M574.66,338.84h8.51v42.68h-8.51Z"/><path d="M631.31,370.4h.18l6.27-31.56h8.8l-9.69,42.68H625.94l-9.69-42.68h9.1Z"/><path d="M702.8,345.89H687.74v10h14.18V363H687.74v11.47H703.4v7.06H679.23V338.84H702.8Z"/><path d="M752.91,338.84c3.55,0,6.3.9,8.27,2.72s3,4.57,3,8.27a12.91,12.91,0,0,1-1.71,7,7.91,7.91,0,0,1-5.32,3.49v.13a7.61,7.61,0,0,1,4.67,2.09,8.9,8.9,0,0,1,1.84,5.2c.07.8.13,1.66.17,2.6s.08,2,.12,3.14c.08,2.27.19,4,.35,5.2a3.37,3.37,0,0,0,1.54,2.45v.36h-9.22a4.74,4.74,0,0,1-.83-2.07c-.11-.77-.19-1.58-.23-2.42l-.24-8.19A6.76,6.76,0,0,0,754,364.9a4.51,4.51,0,0,0-3.78-1.43H745.7v18h-8.51V338.84Zm-3.66,18.65A6.88,6.88,0,0,0,754,356c1.1-1,1.66-2.62,1.66-4.93,0-3.94-2-5.92-5.91-5.92h-4v12.32Z"/><path d="M806.44,369.44a14.19,14.19,0,0,0,.24,2.72,4.61,4.61,0,0,0,.89,2.06,4.33,4.33,0,0,0,1.74,1.32,6.85,6.85,0,0,0,2.75.48,5.36,5.36,0,0,0,3.51-1.29,4.83,4.83,0,0,0,1.57-4,7.09,7.09,0,0,0-.39-2.48,4.86,4.86,0,0,0-1.27-1.89,8.86,8.86,0,0,0-2.33-1.52,30.94,30.94,0,0,0-3.58-1.4,30.79,30.79,0,0,1-4.9-2.1,13.07,13.07,0,0,1-3.45-2.66,9.41,9.41,0,0,1-2-3.52,14.84,14.84,0,0,1-.66-4.64q0-6.33,3.49-9.44c2.32-2.08,5.52-3.11,9.57-3.11a20.43,20.43,0,0,1,5.23.63,10.84,10.84,0,0,1,4.14,2,9.62,9.62,0,0,1,2.72,3.59,12.72,12.72,0,0,1,1,5.23v1.19h-8.16a8.62,8.62,0,0,0-1.06-4.69,3.9,3.9,0,0,0-3.54-1.64,6.1,6.1,0,0,0-2.37.41,4,4,0,0,0-1.5,1.11,3.83,3.83,0,0,0-.77,1.58,8.16,8.16,0,0,0-.21,1.86,6.2,6.2,0,0,0,.83,3.31,7.32,7.32,0,0,0,3.55,2.48L818,358a19.48,19.48,0,0,1,3.95,2.24,10.78,10.78,0,0,1,2.46,2.51,8.21,8.21,0,0,1,1.26,3,16.44,16.44,0,0,1,.36,3.58q0,6.76-3.87,9.83t-10.78,3.08q-7.22,0-10.31-3.16t-3.1-9.09v-1.73h8.5Z"/><path d="M860.21,338.84h8.51v42.68h-8.51Z"/><path d="M929.27,345.89h-9.21v35.63h-8.52V345.89h-9.21v-7.05h26.94Z"/><path d="M974.82,355.33h.12l5.91-16.49h9.22l-10.93,25.88v16.8h-8.51v-16.8L959.7,338.84h9.57Z"/><path class="cls-1" d="M37,16.35H173.55l-3.5,28.91h-105l-8.93,71.49H148l-3.82,28.9H52.33l-11.8,95.42H8.63Z"/><path class="cls-1" d="M255.85,244.18a80.79,80.79,0,0,1-24.72-4,73.49,73.49,0,0,1-22.81-12,58.34,58.34,0,0,1-16.27-19.74Q186,196.64,186,180.78a78.08,78.08,0,0,1,4.31-24.72,74.25,74.25,0,0,1,13.24-23.77A67.69,67.69,0,0,1,227,114.42q14.5-7,35.57-7A76.46,76.46,0,0,1,296.21,115a66.87,66.87,0,0,1,25.84,21.75Q332.1,151,332.1,170.52A80.51,80.51,0,0,1,329.7,189a78.73,78.73,0,0,1-7.65,19.74,66.8,66.8,0,0,1-14,17.56,68.86,68.86,0,0,1-21.69,12.9Q273.4,244.18,255.85,244.18Zm1.28-24.24q15.94,0,25.84-7.46a42.81,42.81,0,0,0,14.36-18.81,59.09,59.09,0,0,0,4.46-21.6q0-10.87-3.67-18.49A35.67,35.67,0,0,0,288.24,141a42.36,42.36,0,0,0-13.4-7.3,43.86,43.86,0,0,0-13.56-2.34q-16,0-25.84,7.46a44.18,44.18,0,0,0-14.52,18.65,57.55,57.55,0,0,0-4.62,22.07q0,14,6.22,22.85a38.76,38.76,0,0,0,15.63,13.21A44.84,44.84,0,0,0,257.13,219.94Z"/><path class="cls-1" d="M406.43,112.39l-2.24,31.4a65.52,65.52,0,0,1,16.75-20,79.37,79.37,0,0,1,21.21-12.12,64.28,64.28,0,0,1,20.1-4.51l-4.79,29.22a46.82,46.82,0,0,0-27.11,5.44,60.39,60.39,0,0,0-19.94,17.4A49.53,49.53,0,0,0,401,182.33l-7.66,58.74H364L380,112.39Z"/><path class="cls-1" d="M555.08,286.76a62.7,62.7,0,0,0,18.82-17.87q7.33-10.72,9.57-26.26l16.59-130.24h29.66l-16,128.68q-2.87,22.38-13.71,38.54t-30.63,25.18ZM600.69,68.88a16.66,16.66,0,0,1,5.91-12.12,18.5,18.5,0,0,1,13.55-4.66,19.93,19.93,0,0,1,11.49,3.73q5.42,3.72,5.1,11.5A16.9,16.9,0,0,1,631,79.45a18.66,18.66,0,0,1-13.08,5,19.81,19.81,0,0,1-11.8-3.88Q600.69,76.66,600.69,68.88Z"/><path class="cls-1" d="M731.16,244.18a80.79,80.79,0,0,1-24.72-4,73.49,73.49,0,0,1-22.81-12,58.34,58.34,0,0,1-16.27-19.74q-6.06-11.81-6.06-27.66a78.08,78.08,0,0,1,4.31-24.72,74.25,74.25,0,0,1,13.24-23.77,67.69,67.69,0,0,1,23.45-17.87q14.51-7,35.57-7A76.46,76.46,0,0,1,771.52,115a66.87,66.87,0,0,1,25.84,21.75q10,14.16,10,33.73A80.51,80.51,0,0,1,805,189a78.73,78.73,0,0,1-7.65,19.74,66.8,66.8,0,0,1-14,17.56,68.86,68.86,0,0,1-21.69,12.9Q748.71,244.18,731.16,244.18Zm1.28-24.24q15.94,0,25.84-7.46a42.81,42.81,0,0,0,14.36-18.81,59.09,59.09,0,0,0,4.46-21.6q0-10.87-3.67-18.49A35.58,35.58,0,0,0,763.54,141a42.15,42.15,0,0,0-13.4-7.3,43.75,43.75,0,0,0-13.55-2.34q-16,0-25.84,7.46a44.18,44.18,0,0,0-14.52,18.65,57.55,57.55,0,0,0-4.62,22.07q0,14,6.22,22.85a38.76,38.76,0,0,0,15.63,13.21A44.84,44.84,0,0,0,732.44,219.94Z"/><path class="cls-1" d="M921.29,243.87q-19.47,0-32.7-8.08A53.27,53.27,0,0,1,868.65,215l4.47-8.08-4.47,34.19H839L869.29.5H899L881.41,140.68V130.11a67.34,67.34,0,0,1,22.33-16.47,71.19,71.19,0,0,1,31-6.53,68.63,68.63,0,0,1,31.58,7.31A54.16,54.16,0,0,1,988.92,136q8.3,14.29,8.29,35.43a73.8,73.8,0,0,1-8.93,35.12,69.34,69.34,0,0,1-25.84,27Q945.53,243.87,921.29,243.87Zm-3.19-24.55q13.39,0,22.49-4.51a46.13,46.13,0,0,0,15-11.5A44.2,44.2,0,0,0,964,188.39a49.22,49.22,0,0,0,2.55-15.07q0-13.37-5.11-23A36.13,36.13,0,0,0,947,135.4q-9.4-5.28-22.81-5.29a46.86,46.86,0,0,0-27.59,8.39A48.54,48.54,0,0,0,879.18,160l-3.51,26.11a85,85,0,0,0,4.47,10.88,42.51,42.51,0,0,0,7.65,10.88,37.61,37.61,0,0,0,12.29,8.23Q907.57,219.32,918.1,219.32Z"/></g></g></svg>