<?xml version="1.0" encoding="utf-8"?>
<!-- Generator: Adobe Illustrator 25.4.1, SVG Export Plug-In . SVG Version: 6.00 Build 0)  -->
<svg version="1.1" id="レイヤー_1" xmlns="http://www.w3.org/2000/svg" xmlns:xlink="http://www.w3.org/1999/xlink" x="0px"
	 y="0px" viewBox="0 0 1366 768" style="enable-background:new 0 0 1366 768;" xml:space="preserve">
<style type="text/css">
	.st0{fill:#21D4FD;}
</style>
<path d="M144.3,165.5h0.5V48.4h31.6v171h-39.3L95,99.6h-0.5v119.8H62.9v-171h39.8L144.3,165.5z"/>
<path d="M215.3,98c1.2-10.9,3.8-20.3,7.9-28.1c4.1-7.8,9.9-13.9,17.6-18.3c7.7-4.4,18-6.6,30.9-6.6c12.9,0,23.2,2.2,30.9,6.6
	c7.7,4.4,13.5,10.5,17.6,18.3c4.1,7.8,6.7,17.2,7.9,28.1c1.2,10.9,1.8,22.9,1.8,35.8c0,13.1-0.6,25.1-1.8,35.9
	c-1.2,10.9-3.8,20.2-7.9,28c-4.1,7.8-9.9,13.8-17.6,18c-7.7,4.1-18,6.2-30.9,6.2c-12.9,0-23.2-2.1-30.9-6.2
	c-7.7-4.2-13.5-10.1-17.6-18c-4.1-7.8-6.7-17.2-7.9-28c-1.2-10.9-1.8-22.8-1.8-35.9C213.5,120.9,214.1,109,215.3,98z M248.9,163.2
	c0.6,8.1,1.7,14.6,3.4,19.6c1.7,5,4.1,8.7,7.2,11c3.1,2.3,7.2,3.5,12.3,3.5c5.1,0,9.2-1.2,12.3-3.5c3.1-2.3,5.5-6,7.2-11
	c1.7-5,2.8-11.6,3.4-19.6c0.6-8.1,0.8-17.8,0.8-29.3c0-11.5-0.3-21.2-0.8-29.2c-0.6-8-1.7-14.5-3.4-19.6c-1.7-5.1-4.1-8.8-7.2-11.1
	c-3.1-2.3-7.2-3.5-12.3-3.5c-5.1,0-9.2,1.2-12.3,3.5c-3.1,2.3-5.5,6-7.2,11.1c-1.7,5.1-2.8,11.7-3.4,19.6c-0.6,8-0.8,17.7-0.8,29.2
	C248,145.4,248.3,155.1,248.9,163.2z"/>
<path d="M467.2,76.6h-37.4v142.7h-34.5V76.6H358V48.4h109.2V76.6z"/>
<path d="M163,316.1h-37.4v142.7H91.2V316.1H53.8v-28.3H163V316.1z"/>
<path d="M229.1,287.9v65.4h40.2v-65.4h34.5v171h-34.5v-75.9h-40.2v75.9h-34.5v-171H229.1z"/>
<path d="M440.1,316.1H379v40.2h57.5v28.3H379v46h63.5v28.3h-98v-171h95.6V316.1z"/>
<path d="M95.2,646.6c0,4.3,0.3,8.3,0.8,11.9c0.6,3.6,1.6,6.7,3.1,9.3c1.5,2.6,3.6,4.7,6.2,6.2c2.6,1.5,5.9,2.3,9.9,2.3
	c4.1,0,7.5-0.8,10.1-2.3c2.6-1.5,4.6-3.6,6.1-6.2c1.5-2.6,2.6-5.8,3.1-9.3c0.6-3.6,0.8-7.5,0.8-11.9V527.4H170v119.3
	c0,10.9-1.5,19.8-4.6,26.9c-3,7.1-7.1,12.7-12.2,16.9c-5.1,4.2-10.9,6.9-17.5,8.4c-6.5,1.4-13.3,2.2-20.4,2.2
	c-7,0-13.8-0.6-20.4-1.9c-6.5-1.3-12.4-3.9-17.5-7.8c-5.1-3.9-9.2-9.5-12.2-16.6c-3-7.2-4.6-16.5-4.6-28V527.4h34.5V646.6z"/>
<path d="M289.9,644.5h0.5V527.4H322v171h-39.3l-42.2-119.8h-0.5v119.8h-31.6v-171h39.8L289.9,644.5z"/>
<path d="M364.4,527.4h34.5v171h-34.5V527.4z"/>
<path d="M491.1,653.8h0.7l25.4-126.5h35.7l-39.3,171h-44.3l-39.3-171h36.9L491.1,653.8z"/>
<path d="M677.9,555.6h-61.1v40.2h57.5v28.3h-57.5v46h63.5v28.3h-98v-171h95.6V555.6z"/>
<path d="M778,527.4c14.4,0,25.5,3.6,33.5,10.9c8,7.3,12,18.3,12,33.2c0,11.5-2.3,20.9-6.9,28.1c-4.6,7.3-11.8,11.9-21.6,14v0.5
	c8.6,1.3,14.9,4.1,18.9,8.4c4,4.3,6.5,11.3,7.4,20.8c0.3,3.2,0.6,6.7,0.7,10.4c0.2,3.8,0.3,7.9,0.5,12.6c0.3,9.1,0.8,16,1.4,20.8
	c1,4.8,3,8.1,6.2,9.8v1.4h-37.4c-1.8-2.4-2.9-5.1-3.4-8.3c-0.5-3.1-0.8-6.3-1-9.7l-1-32.8c-0.3-6.7-2-12-5-15.8
	c-3-3.8-8.1-5.7-15.3-5.7h-18.4v72.3h-34.5v-171H778z M763.2,602.1c8.3,0,14.7-2,19.2-5.9c4.5-3.9,6.7-10.5,6.7-19.8
	c0-15.8-8-23.7-24-23.7h-16.3v49.3H763.2z"/>
<path d="M892,650c0,4,0.3,7.6,1,10.9c0.6,3.3,1.8,6,3.6,8.3c1.8,2.2,4.1,4,7.1,5.3c3,1.3,6.7,1.9,11.1,1.9c5.3,0,10-1.7,14.3-5.1
	c4.2-3.4,6.3-8.7,6.3-15.9c0-3.8-0.5-7.1-1.6-9.9c-1-2.8-2.8-5.3-5.1-7.5c-2.4-2.2-5.5-4.3-9.5-6.1c-3.9-1.8-8.7-3.7-14.5-5.6
	c-7.7-2.6-14.3-5.3-19.9-8.4c-5.6-3-10.3-6.6-14-10.7c-3.8-4.1-6.5-8.8-8.3-14.1c-1.8-5.3-2.6-11.5-2.6-18.6
	c0-16.9,4.7-29.5,14.1-37.8c9.4-8.3,22.4-12.5,38.8-12.5c7.7,0,14.7,0.8,21.2,2.5c6.5,1.7,12.1,4.4,16.8,8.1
	c4.7,3.8,8.4,8.5,11,14.4c2.6,5.8,3.9,12.8,3.9,21v4.8h-33.1c0-8.1-1.4-14.4-4.3-18.8c-2.9-4.4-7.7-6.6-14.4-6.6
	c-3.8,0-7,0.6-9.6,1.7c-2.6,1.1-4.6,2.6-6.1,4.4c-1.5,1.8-2.6,3.9-3.1,6.3c-0.6,2.4-0.8,4.9-0.8,7.4c0,5.3,1.1,9.7,3.4,13.3
	c2.2,3.6,7,6.9,14.4,9.9l26.6,11.5c6.5,2.9,11.9,5.9,16,9c4.1,3.1,7.5,6.5,9.9,10.1c2.5,3.6,4.2,7.5,5.1,11.9
	c1,4.3,1.4,9.1,1.4,14.4c0,18-5.2,31.2-15.7,39.4c-10.5,8.2-25,12.3-43.7,12.3c-19.5,0-33.4-4.2-41.8-12.7
	c-8.4-8.5-12.6-20.6-12.6-36.4V645H892V650z"/>
<path d="M1007,527.4h34.5v171H1007V527.4z"/>
<path d="M1184,555.6h-37.4v142.7h-34.5V555.6h-37.4v-28.3H1184V555.6z"/>
<polyline points="1327.5,527.4 1283.2,631.1 1283.2,698.4 1248.7,698.4 1248.7,631.1 1204.4,527.4 1243.2,527.4 1265.7,593.5 
	1266.1,593.5 1290.1,527.4 1327.5,527.4 "/>
<g>
	<path class="st0" d="M676.4,233.6h54.1v12.5h-41.2v25.8h35.2v11.7h-35.2V321h-12.8V233.6z"/>
	<path class="st0" d="M742.5,277.3c0-10.2,0.3-17,0.9-20.4c0.6-3.4,1.6-6.2,2.8-8.3c2-4,5.3-7.6,9.9-10.7c4.4-3.2,10-4.8,16.6-4.9
		c6.7,0.1,12.3,1.7,16.8,4.9c4.4,3.2,7.7,6.8,9.6,10.8c1.4,2.1,2.4,4.9,3,8.3c0.5,3.4,0.8,10.2,0.8,20.4c0,10-0.3,16.7-0.8,20.3
		c-0.5,3.5-1.5,6.3-3,8.4c-2,4-5.2,7.6-9.6,10.7c-4.5,3.2-10.1,4.9-16.8,5c-6.7-0.2-12.2-1.8-16.6-5c-4.5-3.1-7.8-6.6-9.9-10.7
		c-0.6-1.3-1.2-2.6-1.7-3.8c-0.5-1.2-0.9-2.8-1.2-4.7C742.8,294,742.5,287.3,742.5,277.3z M755.4,277.3c0,8.6,0.3,14.4,0.9,17.5
		c0.5,3,1.6,5.5,3.3,7.4c1.4,1.8,3.1,3.3,5.3,4.4c2.2,1.3,4.8,2,7.8,2c3.1,0,5.7-0.7,8-2c2.1-1.1,3.8-2.6,5.1-4.4
		c1.7-1.9,2.8-4.3,3.4-7.4c0.6-3,0.9-8.9,0.9-17.5c0-8.6-0.3-14.5-0.9-17.6c-0.6-3-1.8-5.4-3.4-7.3c-1.3-1.8-3-3.3-5.1-4.5
		c-2.2-1.2-4.9-1.8-8-1.9c-3,0.1-5.6,0.7-7.8,1.9c-2.2,1.2-4,2.7-5.3,4.5c-1.7,1.9-2.8,4.3-3.3,7.3
		C755.7,262.8,755.4,268.7,755.4,277.3z"/>
	<path class="st0" d="M823.3,233.6h33.1c7,0,12.8,1.9,17.3,5.8c5.4,4.4,8.2,10.6,8.4,18.6c-0.2,11.9-5.6,19.9-16.3,24.2l19.6,38.8
		h-15.2l-17.5-37.3h-16.4V321h-12.8V233.6z M836.1,271.9h19.4c4.8-0.1,8.4-1.5,10.8-4.3c2.4-2.6,3.5-5.8,3.5-9.6
		c-0.1-4.6-1.5-7.9-4.2-9.9c-2.2-1.8-5.3-2.7-9.4-2.7h-20.1V271.9z"/>
	<path class="st0" d="M935.2,302.6c1.2,1.6,2.7,3,4.6,4c1.9,1.2,4.1,1.9,6.7,1.9c3.4,0.1,6.6-1.1,9.7-3.7c1.5-1.2,2.7-2.9,3.5-4.9
		c0.9-2,1.3-4.4,1.3-7.4v-59H974v60.2c-0.2,8.8-2.9,15.6-8.3,20.4c-5.4,4.9-11.6,7.4-18.7,7.5c-9.9-0.2-17.3-4-22.3-11.3
		L935.2,302.6z"/>
	<path class="st0" d="M992.9,277.3c0-10.2,0.3-17,0.9-20.4c0.6-3.4,1.6-6.2,2.8-8.3c2-4,5.3-7.6,9.9-10.7c4.4-3.2,10-4.8,16.6-4.9
		c6.7,0.1,12.3,1.7,16.8,4.9c4.4,3.2,7.7,6.8,9.6,10.8c1.4,2.1,2.4,4.9,3,8.3c0.5,3.4,0.8,10.2,0.8,20.4c0,10-0.3,16.7-0.8,20.3
		c-0.5,3.5-1.5,6.3-3,8.4c-2,4-5.2,7.6-9.6,10.7c-4.5,3.2-10.1,4.9-16.8,5c-6.7-0.2-12.2-1.8-16.6-5c-4.5-3.1-7.8-6.6-9.9-10.7
		c-0.6-1.3-1.2-2.6-1.7-3.8c-0.5-1.2-0.9-2.8-1.2-4.7C993.2,294,992.9,287.3,992.9,277.3z M1005.7,277.3c0,8.6,0.3,14.4,0.9,17.5
		c0.5,3,1.6,5.5,3.3,7.4c1.4,1.8,3.1,3.3,5.3,4.4c2.2,1.3,4.8,2,7.8,2c3.1,0,5.7-0.7,8-2c2.1-1.1,3.8-2.6,5.1-4.4
		c1.7-1.9,2.8-4.3,3.4-7.4c0.6-3,0.9-8.9,0.9-17.5c0-8.6-0.3-14.5-0.9-17.6c-0.6-3-1.8-5.4-3.4-7.3c-1.3-1.8-3-3.3-5.1-4.5
		c-2.2-1.2-4.9-1.8-8-1.9c-3,0.1-5.6,0.7-7.8,1.9c-2.2,1.2-4,2.7-5.3,4.5c-1.7,1.9-2.8,4.3-3.3,7.3
		C1006,262.8,1005.7,268.7,1005.7,277.3z"/>
	<path class="st0" d="M1073.7,233.6h32.8c8.3,0.1,14.6,2.2,18.7,6.5c4.2,4.3,6.3,9.9,6.3,17c0.1,3.6-0.8,7-2.5,10.3
		c-0.9,1.6-2.2,3-3.8,4.4c-1.7,1.5-3.7,2.8-6.2,4v0.2c4.6,1.2,8.1,3.7,10.5,7.5c2.2,3.9,3.3,8.1,3.3,12.6
		c-0.1,7.5-2.4,13.5-6.9,17.9c-4.5,4.6-10,6.9-16.7,6.9h-35.7V233.6z M1086.5,245.3v25.1h18.5c4.7,0,8.1-1.3,10.3-3.8
		c2.2-2.3,3.4-5.3,3.4-8.8s-1.1-6.5-3.4-9c-2.2-2.3-5.7-3.5-10.3-3.6H1086.5z M1086.5,282.2v26.3h19.8c4.8-0.1,8.3-1.4,10.5-4
		c2.2-2.6,3.3-5.6,3.3-9.1c0-3.6-1.1-6.7-3.3-9.3c-2.2-2.5-5.7-3.8-10.5-3.9H1086.5z"/>
</g>
</svg>
