<svg xmlns="http://www.w3.org/2000/svg" width="218.233" height="9.737" viewBox="0 0 218.233 9.737">
  <g id="グループ_2" data-name="グループ 2" transform="translate(0 0)">
    <path id="パス_7" data-name="パス 7" d="M183.312,499.474h.025V493.03h1.72v9.408h-2.136l-2.292-6.588H180.6v6.588h-1.719V493.03h2.161Z" transform="translate(-178.884 -492.846)"/>
    <path id="パス_8" data-name="パス 8" d="M245.243,495.062a4.422,4.422,0,0,1,.431-1.548,2.415,2.415,0,0,1,.957-1.008,4.077,4.077,0,0,1,3.359,0,2.415,2.415,0,0,1,.957,1.008,4.415,4.415,0,0,1,.431,1.548,20.117,20.117,0,0,1,0,3.947,4.4,4.4,0,0,1-.431,1.541,2.289,2.289,0,0,1-.957.988,4.286,4.286,0,0,1-3.359,0,2.29,2.29,0,0,1-.957-.988,4.4,4.4,0,0,1-.431-1.541,20.13,20.13,0,0,1,0-3.947Zm1.825,3.584a4.487,4.487,0,0,0,.182,1.08,1.2,1.2,0,0,0,.39.606,1.273,1.273,0,0,0,1.342,0,1.2,1.2,0,0,0,.391-.606,4.543,4.543,0,0,0,.182-1.08c.029-.443.046-.981.046-1.614s-.016-1.168-.046-1.607a4.627,4.627,0,0,0-.182-1.08,1.2,1.2,0,0,0-.391-.613,1.273,1.273,0,0,0-1.342,0,1.2,1.2,0,0,0-.39.613,4.569,4.569,0,0,0-.182,1.08q-.046.658-.046,1.607T247.068,498.646Z" transform="translate(-231.354 -492.144)"/>
    <path id="パス_9" data-name="パス 9" d="M315.716,494.585h-2.032v7.853h-1.876v-7.853h-2.032V493.03h5.94Z" transform="translate(-282.532 -492.846)"/>
    <path id="パス_10" data-name="パス 10" d="M423.341,494.585h-2.032v7.853h-1.876v-7.853H417.4V493.03h5.94Z" transform="translate(-367.755 -492.846)"/>
    <path id="パス_11" data-name="パス 11" d="M482.975,493.03v3.6h2.188v-3.6h1.875v9.408h-1.875v-4.177h-2.188v4.177H481.1V493.03Z" transform="translate(-418.195 -492.846)"/>
    <path id="パス_12" data-name="パス 12" d="M552.366,494.585h-3.32V496.8h3.126v1.555h-3.126v2.529H552.5v1.555H547.17V493.03h5.2Z" transform="translate(-470.514 -492.846)"/>
    <path id="パス_13" data-name="パス 13" d="M656.17,499.592a4.235,4.235,0,0,0,.046.652,1.471,1.471,0,0,0,.169.514.911.911,0,0,0,.338.343,1.244,1.244,0,0,0,1.088,0,.931.931,0,0,0,.332-.343,1.5,1.5,0,0,0,.169-.514,4.226,4.226,0,0,0,.046-.652V493.03h1.876v6.562a3.839,3.839,0,0,1-.248,1.482,2.371,2.371,0,0,1-.663.929,2.241,2.241,0,0,1-.951.461,5.057,5.057,0,0,1-1.107.119,5.668,5.668,0,0,1-1.107-.106,2.229,2.229,0,0,1-.951-.428,2.187,2.187,0,0,1-.663-.915,4.022,4.022,0,0,1-.248-1.542V493.03h1.876Z" transform="translate(-555.341 -492.846)"/>
    <path id="パス_14" data-name="パス 14" d="M724.235,499.474h.025V493.03h1.72v9.408h-2.136l-2.292-6.588h-.027v6.588h-1.719V493.03h2.161Z" transform="translate(-607.218 -492.846)"/>
    <path id="パス_15" data-name="パス 15" d="M787.446,493.03h1.876v9.408h-1.876Z" transform="translate(-660.778 -492.846)"/>
    <path id="パス_16" data-name="パス 16" d="M834.814,499.987h.04l1.38-6.957h1.941l-2.136,9.408h-2.41l-2.135-9.408H833.5Z" transform="translate(-695.658 -492.846)"/>
    <path id="パス_17" data-name="パス 17" d="M903.382,494.585h-3.319V496.8h3.125v1.555h-3.125v2.529h3.451v1.555h-5.327V493.03h5.2Z" transform="translate(-748.469 -492.846)"/>
    <path id="パス_18" data-name="パス 18" d="M963.031,493.03a2.59,2.59,0,0,1,1.823.6,2.361,2.361,0,0,1,.651,1.825,2.852,2.852,0,0,1-.378,1.548,1.746,1.746,0,0,1-1.172.77v.027a1.689,1.689,0,0,1,1.029.461,1.968,1.968,0,0,1,.4,1.146c.016.176.03.367.038.573s.018.437.026.692c.018.5.043.883.078,1.146a.736.736,0,0,0,.338.541v.079h-2.032a1.026,1.026,0,0,1-.182-.455c-.025-.172-.043-.349-.051-.534l-.052-1.805a1.494,1.494,0,0,0-.273-.869,1,1,0,0,0-.833-.316h-1v3.979h-1.876V493.03Zm-.807,4.111a1.526,1.526,0,0,0,1.042-.323,1.393,1.393,0,0,0,.365-1.087,1.153,1.153,0,0,0-1.3-1.3h-.885v2.715Z" transform="translate(-797.073 -492.846)"/>
    <path id="パス_19" data-name="パス 19" d="M1025.769,499.075a3.116,3.116,0,0,0,.053.6,1.046,1.046,0,0,0,.2.455.965.965,0,0,0,.384.289,1.508,1.508,0,0,0,.606.106,1.189,1.189,0,0,0,.775-.284,1.067,1.067,0,0,0,.345-.876,1.57,1.57,0,0,0-.085-.547,1.082,1.082,0,0,0-.279-.415,1.974,1.974,0,0,0-.514-.336,7.256,7.256,0,0,0-.788-.309,6.639,6.639,0,0,1-1.081-.462,2.887,2.887,0,0,1-.762-.586,2.1,2.1,0,0,1-.45-.777,3.307,3.307,0,0,1-.144-1.021,2.651,2.651,0,0,1,.769-2.082,3.055,3.055,0,0,1,2.109-.685,4.529,4.529,0,0,1,1.152.138,2.4,2.4,0,0,1,.912.448,2.109,2.109,0,0,1,.6.79,2.825,2.825,0,0,1,.215,1.153v.263h-1.8a1.912,1.912,0,0,0-.233-1.034.862.862,0,0,0-.782-.362,1.3,1.3,0,0,0-.52.092.884.884,0,0,0-.332.244.853.853,0,0,0-.169.349,1.805,1.805,0,0,0-.046.409,1.367,1.367,0,0,0,.182.731,1.635,1.635,0,0,0,.782.547l1.445.633a4.381,4.381,0,0,1,.872.494,2.39,2.39,0,0,1,.541.553,1.83,1.83,0,0,1,.279.652,3.625,3.625,0,0,1,.079.79,2.6,2.6,0,0,1-.854,2.167,3.718,3.718,0,0,1-2.376.679,3.09,3.09,0,0,1-2.273-.7,2.745,2.745,0,0,1-.684-2V498.8h1.875Z" transform="translate(-848.011 -492.144)"/>
    <path id="パス_20" data-name="パス 20" d="M1089.838,493.03h1.876v9.408h-1.876Z" transform="translate(-900.23 -492.846)"/>
    <path id="パス_21" data-name="パス 21" d="M1140.383,494.585h-2.032v7.853h-1.876v-7.853h-2.032V493.03h5.939Z" transform="translate(-935.55 -492.846)"/>
    <path id="パス_22" data-name="パス 22" d="M1198.536,496.667h.026l1.3-3.637h2.032l-2.41,5.706v3.7h-1.876v-3.7l-2.408-5.706h2.11Z" transform="translate(-983.664 -492.846)"/>
  </g>
</svg>
